<?xml version="1.0" encoding="UTF-8"?>
<svg xmlns="http://www.w3.org/2000/svg" xmlns:xlink="http://www.w3.org/1999/xlink" version="1.2" >
<font id="ALS Hauss Black Expanded">
<font-face  font-family="ALS Hauss" units-per-em="1000" ascent="980" descent="-250" font-style="normal" font-weight="900" font-stretch="expanded" cap-height="704" x-height="523" underline-position="-75" underline-thickness="50" />
<missing-glyph  horiz-adv-x="578" d="M70 704 L70 0 L508 0 L508 704 L70 704 Z M477 674 L477 30 L100 30 L100 674 L477 674 Z " />
<glyph glyph-name="CR" unicode="&#xd;" horiz-adv-x="215" d="" />
<glyph glyph-name="space" unicode="&#x20;" horiz-adv-x="215" d="" />
<glyph glyph-name="exclam" unicode="&#x21;" horiz-adv-x="361" d="M103 245 L257 245 L271 704 L90 704 L103 245 Z M182 186 C123 186 76 142 76 87 C76 31 123 -13 182 -13 C241 -13 286 31 286 87 C286 142 241 186 182 186 L182 186 Z " />
<glyph glyph-name="quotedbl" unicode="&#x22;" horiz-adv-x="520" d="M65 396 L215 396 L225 704 L65 704 L65 396 Z M334 396 L484 396 L494 704 L334 704 L334 396 Z " />
<glyph glyph-name="numbersign" unicode="&#x23;" horiz-adv-x="879" d="M839 408 L839 546 L715 546 L749 704 L601 704 L567 546 L397 546 L432 704 L283 704 L249 546 L96 546 L96 408 L219 408 L195 295 L40 295 L40 157 L165 157 L131 0 L279 0 L314 157 L483 157 L448 0 L596 0 L630 157 L782 157 L782 295 L660 295 L685 408 L839 408 Z M514 293 L340 293 L366 410 L539 410 L514 293 Z " />
<glyph glyph-name="dollar" unicode="&#x24;" horiz-adv-x="733" d="M696 223 C696 340 616 403 471 421 L420 427 L420 551 C471 543 506 524 519 492 L684 492 C666 604 573 681 420 697 L420 788 L315 788 L315 698 C155 684 48 598 48 484 C48 371 123 307 269 291 L315 286 L315 152 C251 163 216 188 205 218 L38 218 C57 102 153 23 315 7 L315 -90 L420 -90 L420 5 C598 17 696 100 696 223 L696 223 Z M217 493 C217 523 252 546 315 553 L315 440 L308 441 C245 449 217 462 217 493 L217 493 Z M420 150 L420 275 L434 273 C497 266 527 247 527 214 C527 183 494 157 420 150 L420 150 Z " />
<glyph glyph-name="percent" unicode="&#x25;" horiz-adv-x="1144" d="M30 522 C30 407 129 328 260 328 C392 328 491 407 491 522 C491 638 391 717 260 717 C129 717 30 638 30 522 L30 522 Z M184 0 L346 0 L960 704 L796 704 L184 0 Z M260 597 C314 597 349 565 349 522 C349 480 315 448 260 448 C205 448 173 481 173 522 C173 564 205 597 260 597 L260 597 Z M652 182 C652 66 752 -13 884 -13 C1015 -13 1114 66 1114 182 C1114 297 1015 376 884 376 C752 376 652 297 652 182 L652 182 Z M884 256 C939 256 971 223 971 182 C971 140 939 107 884 107 C829 107 795 139 795 182 C795 224 829 256 884 256 L884 256 Z " />
<glyph glyph-name="ampersand" unicode="&#x26;" horiz-adv-x="887" d="M872 0 L698 164 L866 331 L678 331 L599 253 L472 363 C576 407 628 457 628 531 C628 633 529 717 387 717 C241 717 138 629 138 532 C138 469 175 432 220 400 L224 397 C93 348 41 278 41 195 C41 70 163 -13 336 -13 C444 -13 527 20 583 64 L594 73 L672 0 L872 0 Z M386 588 C436 588 475 560 475 529 C475 495 441 468 372 445 L350 460 C318 483 293 499 293 530 C293 562 334 588 386 588 L386 588 Z M209 208 C209 249 241 285 324 309 L489 166 C457 145 408 128 349 128 C268 128 209 161 209 208 L209 208 Z " />
<glyph glyph-name="quotesingle" unicode="&#x27;" horiz-adv-x="290" d="M65 396 L215 396 L225 704 L65 704 L65 396 Z " />
<glyph glyph-name="parenleft" unicode="&#x28;" horiz-adv-x="451" d="M429 727 L261 727 C164 635 68 480 68 284 C68 88 164 -66 261 -158 L429 -158 C313 -34 244 113 244 284 C244 455 313 603 429 727 L429 727 Z " />
<glyph glyph-name="parenright" unicode="&#x29;" horiz-adv-x="451" d="M22 727 C138 603 207 453 207 284 C207 115 138 -34 22 -158 L190 -158 C286 -66 383 85 383 284 C383 482 286 635 190 727 L22 727 Z " />
<glyph glyph-name="asterisk" unicode="&#x2a;" horiz-adv-x="568" d="M541 516 L505 624 L340 577 L343 717 L225 717 L228 577 L63 624 L27 516 L186 475 L89 365 L185 300 L284 419 L385 300 L479 365 L383 475 L541 516 Z " />
<glyph glyph-name="plus" unicode="&#x2b;" horiz-adv-x="769" d="M696 353 L465 353 L465 535 L301 535 L301 353 L72 353 L72 197 L301 197 L301 13 L465 13 L465 197 L696 197 L696 353 Z " />
<glyph glyph-name="comma" unicode="&#x2c;" horiz-adv-x="325" d="M270 84 C270 139 222 183 163 183 C102 183 58 142 58 88 C58 39 92 12 122 1 L50 -156 L175 -156 L256 18 C264 36 270 55 270 84 L270 84 Z " />
<glyph glyph-name="hyphen" unicode="&#x2d;" horiz-adv-x="528" d="M60 197 L468 197 L468 353 L60 353 L60 197 Z " />
<glyph glyph-name="period" unicode="&#x2e;" horiz-adv-x="320" d="M161 186 C102 186 55 142 55 87 C55 31 102 -13 161 -13 C220 -13 265 31 265 87 C265 142 220 186 161 186 L161 186 Z " />
<glyph glyph-name="slash" unicode="&#x2f;" horiz-adv-x="498" d="M327 727 L5 -158 L172 -158 L493 727 L327 727 Z " />
<glyph glyph-name="zero" unicode="0" horiz-adv-x="803" d="M401 717 C188 717 46 572 46 352 C46 132 188 -13 401 -13 C615 -13 757 132 757 352 C757 572 615 717 401 717 L401 717 Z M401 144 C288 144 231 234 231 352 C231 470 288 560 401 560 C515 560 571 470 571 352 C571 234 515 144 401 144 L401 144 Z " />
<glyph glyph-name="one" unicode="1" horiz-adv-x="518" d="M423 704 L255 704 L40 591 L40 420 L241 517 L241 0 L423 0 L423 704 Z " />
<glyph glyph-name="two" unicode="2" horiz-adv-x="745" d="M341 156 L536 285 C623 343 683 397 683 494 C683 615 570 717 374 717 C185 717 70 616 52 492 L230 492 C241 532 291 561 370 561 C449 561 497 527 497 485 C497 446 462 421 405 382 L59 146 L59 0 L698 0 L698 156 L341 156 Z " />
<glyph glyph-name="three" unicode="3" horiz-adv-x="757" d="M53 502 L232 502 C241 536 295 563 371 563 C445 563 498 537 498 498 C498 457 450 431 365 431 L283 431 L283 284 L378 284 C468 284 529 262 529 215 C529 167 467 141 384 141 C290 141 234 171 222 210 L43 210 C55 77 192 -13 384 -13 C581 -13 714 75 714 201 C714 303 625 355 550 371 C617 391 682 438 682 522 C682 632 562 717 378 717 C208 717 70 633 53 502 L53 502 Z " />
<glyph glyph-name="four" unicode="4" horiz-adv-x="789" d="M754 275 L636 275 L636 704 L402 704 L37 275 L37 127 L459 127 L459 0 L636 0 L636 127 L754 127 L754 275 Z M226 275 L459 541 L459 275 L226 275 Z " />
<glyph glyph-name="five" unicode="5" horiz-adv-x="761" d="M435 467 C344 467 277 434 239 398 L258 548 L666 548 L666 704 L108 704 L63 280 L244 280 C274 311 325 327 386 327 C463 327 532 292 532 235 C532 179 469 141 385 141 C304 141 249 167 238 202 L56 202 C73 76 204 -13 389 -13 C571 -13 717 78 717 238 C717 393 579 467 435 467 L435 467 Z " />
<glyph glyph-name="six" unicode="6" horiz-adv-x="779" d="M451 464 C360 464 272 437 223 366 C230 516 312 564 417 564 C490 564 531 537 540 513 L721 513 C701 626 586 717 410 717 C199 717 46 582 46 346 C46 129 188 -13 413 -13 C605 -13 738 95 738 240 C738 381 597 464 451 464 L451 464 Z M408 141 C319 141 255 182 255 233 C255 289 324 324 404 324 C487 324 554 286 554 233 C554 181 490 141 408 141 L408 141 Z " />
<glyph glyph-name="seven" unicode="7" horiz-adv-x="688" d="M30 704 L30 548 L450 548 L114 0 L316 0 L652 560 L652 704 L30 704 Z " />
<glyph glyph-name="eight" unicode="8" horiz-adv-x="776" d="M46 199 C46 81 183 -13 389 -13 C592 -13 730 80 730 199 C730 289 651 346 565 365 C645 389 706 439 706 518 C706 623 585 717 389 717 C190 717 71 622 71 518 C71 440 132 389 211 365 C126 347 46 290 46 199 L46 199 Z M524 497 C524 456 467 425 389 425 C311 425 253 456 253 497 C253 541 306 570 389 570 C471 570 524 541 524 497 L524 497 Z M543 214 C543 168 484 134 389 134 C293 134 234 168 234 214 C234 259 294 295 389 295 C484 295 543 259 543 214 L543 214 Z " />
<glyph glyph-name="nine" unicode="9" horiz-adv-x="779" d="M366 717 C174 717 41 609 41 464 C41 323 182 240 328 240 C419 240 507 267 556 338 C549 188 467 140 362 140 C289 140 248 167 239 191 L58 191 C78 78 193 -13 369 -13 C580 -13 733 122 733 358 C733 575 591 717 366 717 L366 717 Z M375 380 C292 380 225 418 225 471 C225 523 289 563 371 563 C460 563 524 522 524 471 C524 415 455 380 375 380 L375 380 Z " />
<glyph glyph-name="colon" unicode="&#x3a;" horiz-adv-x="307" d="M161 510 C102 510 55 466 55 411 C55 355 102 311 161 311 C220 311 265 355 265 411 C265 466 220 510 161 510 L161 510 Z M161 186 C102 186 55 142 55 87 C55 31 102 -13 161 -13 C220 -13 265 31 265 87 C265 142 220 186 161 186 L161 186 Z " />
<glyph glyph-name="semicolon" unicode="&#x3b;" horiz-adv-x="307" d="M161 510 C102 510 55 466 55 411 C55 355 102 311 161 311 C220 311 265 355 265 411 C265 466 220 510 161 510 L161 510 Z M270 84 C270 139 222 183 163 183 C102 183 58 142 58 88 C58 39 92 12 122 1 L50 -156 L175 -156 L256 18 C264 36 270 55 270 84 L270 84 Z " />
<glyph glyph-name="less" unicode="&#x3c;" horiz-adv-x="767" d="M692 550 L75 339 L75 209 L692 -2 L692 164 L319 275 L692 385 L692 550 Z " />
<glyph glyph-name="equal" unicode="&#x3d;" horiz-adv-x="762" d="M79 321 L683 321 L683 469 L79 469 L79 321 Z M79 79 L683 79 L683 227 L79 227 L79 79 Z " />
<glyph glyph-name="greater" unicode="&#x3e;" horiz-adv-x="767" d="M75 550 L75 385 L448 275 L75 164 L75 -2 L692 209 L692 339 L75 550 Z " />
<glyph glyph-name="question" unicode="&#x3f;" horiz-adv-x="651" d="M440 511 C440 480 395 468 347 446 C253 403 220 361 220 282 L220 245 L382 245 L382 261 C382 311 415 326 470 349 C537 377 614 408 614 519 C614 627 514 717 334 717 C150 717 42 614 31 502 L195 502 C206 541 257 565 330 565 C396 565 440 540 440 511 L440 511 Z M302 186 C243 186 196 142 196 87 C196 31 243 -13 302 -13 C361 -13 406 31 406 87 C406 142 361 186 302 186 L302 186 Z " />
<glyph glyph-name="at" unicode="&#x40;" horiz-adv-x="1100" d="M570 712 C284 712 42 542 42 283 C42 20 294 -130 581 -130 C661 -130 730 -125 800 -102 L800 5 C731 -15 658 -22 581 -22 C369 -22 165 78 165 283 C165 480 346 604 569 604 C808 604 945 488 945 321 C945 221 906 196 867 196 C833 196 805 218 805 254 L805 492 L656 492 L656 446 C631 474 587 504 509 504 C382 504 285 418 285 291 C285 152 389 78 509 78 C610 78 661 125 680 151 C712 106 769 77 844 77 C965 77 1068 140 1068 321 C1068 546 864 712 570 712 L570 712 Z M545 204 C485 204 438 238 438 291 C438 346 486 377 545 377 C607 377 652 345 652 294 L652 287 C652 237 606 204 545 204 L545 204 Z " />
<glyph glyph-name="A" unicode="A" horiz-adv-x="859" d="M654 0 L849 0 L526 704 L332 704 L10 0 L206 0 L261 126 L597 126 L654 0 Z M429 505 L535 275 L324 275 L429 505 Z " />
<glyph glyph-name="B" unicode="B" horiz-adv-x="767" d="M587 377 C649 398 699 440 699 520 C699 621 626 704 438 704 L68 704 L68 0 L458 0 C650 0 733 87 733 204 C733 304 656 361 587 377 L587 377 Z M512 492 C512 457 487 427 423 427 L254 427 L254 555 L419 555 C483 555 512 530 512 492 L512 492 Z M450 149 L254 149 L254 288 L449 288 C513 288 545 262 545 219 C545 175 512 149 450 149 L450 149 Z " />
<glyph glyph-name="C" unicode="C" horiz-adv-x="865" d="M646 253 C634 208 569 150 451 150 C323 150 227 230 227 352 C227 479 323 554 448 554 C556 554 625 508 645 451 L830 451 C810 597 677 717 448 717 C212 717 38 573 38 352 C38 119 224 -13 449 -13 C697 -13 820 126 831 253 L646 253 Z " />
<glyph glyph-name="D" unicode="D" horiz-adv-x="855" d="M406 704 L68 704 L68 0 L406 0 C665 0 817 134 817 352 C817 570 665 704 406 704 L406 704 Z M393 158 L254 158 L254 546 L393 546 C540 546 628 473 628 352 C628 231 540 158 393 158 L393 158 Z " />
<glyph glyph-name="E" unicode="E" horiz-adv-x="702" d="M656 543 L656 704 L68 704 L68 0 L656 0 L656 161 L254 161 L254 279 L632 279 L632 434 L254 434 L254 543 L656 543 Z " />
<glyph glyph-name="F" unicode="F" horiz-adv-x="693" d="M651 542 L651 704 L68 704 L68 0 L254 0 L254 261 L622 261 L622 416 L254 416 L254 542 L651 542 Z " />
<glyph glyph-name="G" unicode="G" horiz-adv-x="887" d="M448 398 L448 253 L647 253 C647 203 587 146 460 146 C327 146 227 213 227 352 C227 486 324 556 455 556 C558 556 621 515 641 473 L836 473 C804 606 670 717 454 717 C198 717 38 559 38 352 C38 129 211 -13 454 -13 C709 -13 845 124 845 315 L845 398 L448 398 Z " />
<glyph glyph-name="H" unicode="H" horiz-adv-x="871" d="M617 704 L617 442 L254 442 L254 704 L68 704 L68 0 L254 0 L254 278 L617 278 L617 0 L803 0 L803 704 L617 704 Z " />
<glyph glyph-name="I" unicode="I" horiz-adv-x="322" d="M254 704 L68 704 L68 0 L254 0 L254 704 Z " />
<glyph glyph-name="J" unicode="J" horiz-adv-x="694" d="M20 214 C25 79 146 -13 318 -13 C508 -13 629 80 629 246 L629 704 L443 704 L443 255 C443 186 395 150 320 150 C252 150 208 180 200 214 L20 214 Z " />
<glyph glyph-name="K" unicode="K" horiz-adv-x="801" d="M797 0 L438 367 L788 704 L559 703 L254 414 L254 704 L68 704 L68 0 L254 0 L254 305 L556 0 L797 0 Z " />
<glyph glyph-name="L" unicode="L" horiz-adv-x="689" d="M254 161 L254 704 L68 704 L68 0 L656 0 L656 161 L254 161 Z " />
<glyph glyph-name="M" unicode="M" horiz-adv-x="1091" d="M791 704 L547 238 L301 704 L68 704 L68 0 L242 0 L242 466 L482 8 L609 8 L851 470 L851 0 L1023 0 L1023 704 L791 704 Z " />
<glyph glyph-name="N" unicode="N" horiz-adv-x="885" d="M637 704 L637 272 L262 704 L68 704 L68 0 L247 0 L247 455 L642 0 L817 0 L817 704 L637 704 Z " />
<glyph glyph-name="O" unicode="O" horiz-adv-x="914" d="M457 717 C212 717 38 574 38 352 C38 130 212 -13 457 -13 C702 -13 876 130 876 352 C876 574 702 717 457 717 L457 717 Z M457 150 C314 150 227 236 227 352 C227 468 314 554 457 554 C601 554 687 467 687 352 C687 237 601 150 457 150 L457 150 Z " />
<glyph glyph-name="P" unicode="P" horiz-adv-x="751" d="M431 704 L68 704 L68 0 L254 0 L254 216 L436 216 C625 216 719 321 719 460 C719 601 629 704 431 704 L431 704 Z M415 372 L254 372 L254 549 L414 549 C494 549 531 513 531 460 C531 410 494 372 415 372 L415 372 Z " />
<glyph glyph-name="Q" unicode="Q" horiz-adv-x="914" d="M876 352 C876 574 702 717 457 717 C212 717 38 574 38 352 C38 130 212 -13 457 -13 C508 -13 556 -7 600 6 L655 -63 L841 -63 L735 70 C823 133 876 231 876 352 L876 352 Z M457 148 C314 148 227 235 227 352 C227 469 314 556 457 556 C600 556 687 469 687 352 C687 293 666 242 626 206 L586 257 L399 257 L485 149 C476 148 467 148 457 148 L457 148 Z " />
<glyph glyph-name="R" unicode="R" horiz-adv-x="782" d="M561 0 L772 0 L578 252 C671 290 720 368 720 466 C720 605 622 704 426 704 L68 704 L68 0 L254 0 L254 227 L390 227 L561 0 Z M254 549 L411 549 C497 549 532 514 532 463 C532 413 494 378 411 378 L254 378 L254 549 Z " />
<glyph glyph-name="S" unicode="S" horiz-adv-x="765" d="M38 211 C59 75 196 -13 393 -13 C600 -13 728 80 728 221 C728 342 643 413 490 429 L331 446 C266 453 237 469 237 500 C237 539 299 564 376 564 C459 564 515 541 532 499 L716 499 C694 635 560 717 376 717 C190 717 49 621 49 487 C49 367 132 302 278 285 L445 266 C500 260 540 243 540 207 C540 168 481 139 393 139 C297 139 238 170 224 211 L38 211 Z " />
<glyph glyph-name="T" unicode="T" horiz-adv-x="775" d="M745 704 L30 704 L30 543 L295 543 L295 0 L481 0 L481 543 L745 543 L745 704 Z " />
<glyph glyph-name="U" unicode="U" horiz-adv-x="864" d="M63 304 C63 85 221 -13 432 -13 C643 -13 801 85 801 304 L801 704 L615 704 L615 309 C615 207 546 149 432 149 C319 149 249 207 249 309 L249 704 L63 704 L63 304 Z " />
<glyph glyph-name="V" unicode="V" horiz-adv-x="843" d="M639 704 L422 216 L205 704 L10 704 L325 0 L517 0 L833 704 L639 704 Z " />
<glyph glyph-name="W" unicode="W" horiz-adv-x="1243" d="M1038 704 L870 252 L706 704 L537 704 L375 252 L205 704 L18 704 L280 0 L456 0 L621 460 L787 0 L964 0 L1225 704 L1038 704 Z " />
<glyph glyph-name="X" unicode="X" horiz-adv-x="851" d="M833 0 L547 351 L830 704 L624 704 L429 467 L236 704 L21 704 L305 353 L18 0 L228 0 L423 240 L619 0 L833 0 Z " />
<glyph glyph-name="Y" unicode="Y" horiz-adv-x="823" d="M815 704 L611 704 L413 421 L214 704 L8 704 L318 261 L318 0 L505 0 L505 261 L815 704 Z " />
<glyph glyph-name="Z" unicode="Z" horiz-adv-x="759" d="M712 704 L47 704 L47 543 L462 543 L47 143 L47 0 L712 0 L712 161 L296 161 L712 562 L712 704 Z " />
<glyph glyph-name="bracketleft" unicode="&#x5b;" horiz-adv-x="442" d="M416 585 L416 727 L90 727 L90 -158 L416 -158 L416 -16 L258 -16 L258 585 L416 585 Z " />
<glyph glyph-name="backslash" unicode="&#x5c;" horiz-adv-x="498" d="M171 727 L5 727 L326 -158 L493 -158 L171 727 Z " />
<glyph glyph-name="bracketright" unicode="&#x5d;" horiz-adv-x="442" d="M26 727 L26 585 L184 585 L184 -16 L26 -16 L26 -158 L352 -158 L352 727 L26 727 Z " />
<glyph glyph-name="asciicircum" unicode="&#x5e;" horiz-adv-x="576" d="M557 327 L366 697 L220 697 L19 327 L174 327 L292 544 L400 327 L557 327 Z " />
<glyph glyph-name="underscore" unicode="&#x5f;" horiz-adv-x="598" d="M0 -48 L0 -194 L598 -194 L598 -48 L0 -48 Z " />
<glyph glyph-name="grave" unicode="&#x60;" horiz-adv-x="520" d="M138 764 L250 588 L381 588 L288 764 L138 764 Z " />
<glyph glyph-name="a" unicode="a" horiz-adv-x="671" d="M340 536 C172 536 75 457 56 364 L219 364 C230 385 268 404 332 404 C398 404 444 385 444 346 L444 328 L286 328 C121 328 30 266 30 155 C30 48 132 -13 254 -13 C347 -13 416 15 455 58 L455 0 L617 0 L617 340 C617 472 506 536 340 536 L340 536 Z M307 118 C246 118 207 137 207 166 C207 195 238 213 299 213 L444 213 L444 197 C444 145 380 118 307 118 L307 118 Z " />
<glyph glyph-name="b" unicode="b" horiz-adv-x="731" d="M422 536 C336 536 273 504 235 464 L235 727 L58 727 L58 0 L228 0 L228 66 C261 20 330 -13 418 -13 C583 -13 700 94 700 261 C700 432 581 536 422 536 L422 536 Z M377 136 C290 136 232 184 232 259 L232 263 C232 338 293 387 377 387 C464 387 524 338 524 261 C524 184 465 136 377 136 L377 136 Z " />
<glyph glyph-name="c" unicode="c" horiz-adv-x="677" d="M353 136 C270 136 208 183 208 261 C208 337 268 387 352 387 C423 387 464 357 479 326 L647 326 C633 440 526 536 352 536 C159 536 31 417 31 261 C31 105 160 -13 352 -13 C526 -13 636 75 649 197 L482 197 C470 166 430 136 353 136 L353 136 Z " />
<glyph glyph-name="d" unicode="d" horiz-adv-x="732" d="M498 727 L498 464 C463 506 397 536 314 536 C149 536 31 429 31 261 C31 90 151 -13 310 -13 C403 -13 469 23 505 66 L505 0 L674 0 L674 727 L498 727 Z M501 259 C501 185 439 136 354 136 C267 136 208 185 208 261 C208 339 267 387 354 387 C441 387 501 339 501 263 L501 259 Z " />
<glyph glyph-name="e" unicode="e" horiz-adv-x="682" d="M651 212 L651 266 C651 430 529 536 345 536 C160 536 31 429 31 258 C31 87 165 -13 354 -13 C537 -13 624 78 644 156 L476 156 C464 140 425 120 357 120 C273 120 207 161 207 210 L207 212 L651 212 Z M348 404 C424 404 475 374 481 328 L210 328 C222 379 277 404 348 404 L348 404 Z " />
<glyph glyph-name="f" unicode="f" horiz-adv-x="442" d="M384 592 L416 592 L416 727 L358 727 C196 727 118 662 118 543 L118 523 L15 523 L15 384 L118 384 L118 0 L294 0 L294 384 L416 384 L416 523 L290 523 L290 537 C290 582 336 592 384 592 L384 592 Z " />
<glyph glyph-name="g" unicode="g" horiz-adv-x="730" d="M504 523 L504 456 C474 497 409 536 313 536 C145 536 31 425 31 273 C31 111 147 13 308 13 C400 13 458 43 496 88 L496 42 C496 -35 443 -78 357 -78 C286 -78 241 -55 228 -29 L55 -29 C69 -116 168 -211 356 -211 C551 -211 672 -113 672 41 L672 523 L504 523 Z M354 156 C266 156 208 207 208 273 C208 338 265 391 354 391 C449 391 500 335 500 274 L500 271 C500 209 444 156 354 156 L354 156 Z " />
<glyph glyph-name="h" unicode="h" horiz-adv-x="710" d="M424 536 C340 536 271 497 235 451 L235 727 L58 727 L58 0 L235 0 L235 272 C235 344 296 379 359 379 C430 379 479 342 479 272 L479 0 L656 0 L656 315 C656 473 542 536 424 536 L424 536 Z " />
<glyph glyph-name="i" unicode="i" horiz-adv-x="293" d="M146 767 C93 767 51 726 51 673 C51 619 93 578 146 578 C200 578 242 619 242 673 C242 726 200 767 146 767 L146 767 Z M235 523 L58 523 L58 0 L235 0 L235 523 Z " />
<glyph glyph-name="j" unicode="j" horiz-adv-x="314" d="M167 767 C114 767 72 726 72 673 C72 619 114 578 167 578 C221 578 263 619 263 673 C263 726 221 767 167 767 L167 767 Z M-32 -194 L6 -194 C218 -194 256 -98 256 15 L256 523 L79 523 L79 21 C79 -57 16 -57 -9 -57 L-32 -57 L-32 -194 Z " />
<glyph glyph-name="k" unicode="k" horiz-adv-x="663" d="M663 0 L399 278 L656 523 L451 523 L235 319 L235 727 L58 727 L58 0 L235 0 L235 227 L449 0 L663 0 Z " />
<glyph glyph-name="l" unicode="l" horiz-adv-x="293" d="M235 727 L58 727 L58 0 L235 0 L235 727 Z " />
<glyph glyph-name="m" unicode="m" horiz-adv-x="1089" d="M809 536 C738 536 656 509 603 442 C562 510 485 536 414 536 C348 536 275 509 228 444 L228 523 L58 523 L58 0 L235 0 L235 283 C235 345 288 379 350 379 C408 379 458 349 458 282 L458 0 L635 0 L635 283 C635 345 688 379 749 379 C807 379 859 349 859 282 L859 0 L1035 0 L1035 321 C1035 474 920 536 809 536 L809 536 Z " />
<glyph glyph-name="n" unicode="n" horiz-adv-x="710" d="M424 536 C334 536 262 492 228 442 L228 523 L58 523 L58 0 L235 0 L235 272 C235 344 296 379 359 379 C430 379 479 342 479 272 L479 0 L656 0 L656 316 C656 473 542 536 424 536 L424 536 Z " />
<glyph glyph-name="o" unicode="o" horiz-adv-x="712" d="M356 536 C168 536 31 429 31 261 C31 94 168 -13 356 -13 C545 -13 681 94 681 261 C681 429 545 536 356 536 L356 536 Z M356 136 C266 136 208 189 208 261 C208 334 266 387 356 387 C447 387 506 334 506 261 C506 189 447 136 356 136 L356 136 Z " />
<glyph glyph-name="p" unicode="p" horiz-adv-x="731" d="M422 536 C331 536 264 501 228 458 L228 523 L58 523 L58 -191 L235 -191 L235 57 C271 15 336 -13 418 -13 C583 -13 700 94 700 261 C700 432 581 536 422 536 L422 536 Z M377 136 C290 136 232 184 232 259 L232 263 C232 338 293 387 377 387 C464 387 524 338 524 261 C524 184 465 136 377 136 L377 136 Z " />
<glyph glyph-name="q" unicode="q" horiz-adv-x="732" d="M505 523 L505 455 C472 502 403 536 314 536 C149 536 31 429 31 261 C31 90 151 -13 310 -13 C399 -13 462 20 498 61 L498 -191 L674 -191 L674 523 L505 523 Z M354 136 C267 136 208 185 208 261 C208 339 267 387 354 387 C441 387 501 339 501 263 L501 259 C501 185 439 136 354 136 L354 136 Z " />
<glyph glyph-name="r" unicode="r" horiz-adv-x="471" d="M416 525 C342 525 270 501 228 429 L228 523 L58 523 L58 0 L235 0 L235 245 C235 317 293 360 405 360 L448 360 L448 525 L416 525 Z " />
<glyph glyph-name="s" unicode="s" horiz-adv-x="627" d="M203 159 L31 159 C46 48 164 -13 322 -13 C476 -13 597 51 597 167 C597 265 529 315 414 325 L276 337 C239 340 210 345 210 369 C210 390 248 407 306 407 C361 407 402 394 412 365 L584 365 C569 470 464 535 311 535 C154 535 40 464 40 356 C40 255 109 209 224 199 L357 187 C402 183 425 178 425 156 C425 132 386 114 324 114 C257 114 214 130 203 159 L203 159 Z " />
<glyph glyph-name="t" unicode="t" horiz-adv-x="456" d="M422 384 L422 523 L292 523 L292 655 L116 655 L116 523 L14 523 L14 384 L116 384 L116 194 C116 19 239 -2 355 -2 L422 -2 L422 146 L385 146 C310 146 292 169 292 208 L292 384 L422 384 Z " />
<glyph glyph-name="u" unicode="u" horiz-adv-x="710" d="M475 523 L475 251 C475 179 414 144 351 144 C280 144 231 181 231 251 L231 523 L54 523 L54 207 C54 50 168 -13 286 -13 C376 -13 448 31 482 81 L482 0 L652 0 L652 523 L475 523 Z " />
<glyph glyph-name="v" unicode="v" horiz-adv-x="667" d="M479 523 L334 195 L189 523 L0 523 L241 0 L426 0 L667 523 L479 523 Z " />
<glyph glyph-name="w" unicode="w" horiz-adv-x="1005" d="M821 523 L704 217 L588 523 L417 523 L303 217 L183 523 L4 523 L206 0 L379 0 L501 326 L623 0 L798 0 L1001 523 L821 523 Z " />
<glyph glyph-name="x" unicode="x" horiz-adv-x="672" d="M668 0 L451 259 L665 523 L471 523 L341 362 L210 523 L6 523 L219 262 L4 0 L200 0 L331 157 L463 0 L668 0 Z " />
<glyph glyph-name="y" unicode="y" horiz-adv-x="676" d="M488 523 L338 201 L189 523 L0 523 L244 17 L144 -191 L332 -191 L676 523 L488 523 Z " />
<glyph glyph-name="z" unicode="z" horiz-adv-x="617" d="M578 523 L39 523 L39 375 L336 375 L39 135 L39 0 L578 0 L578 148 L281 148 L578 388 L578 523 Z " />
<glyph glyph-name="braceleft" unicode="&#x7b;" horiz-adv-x="482" d="M317 421 L317 499 C317 570 362 585 417 585 L456 585 L456 727 L409 727 C250 727 148 676 148 535 L148 449 C148 371 111 354 52 354 L20 354 L20 213 L52 213 C135 213 148 172 148 119 L148 34 C148 -107 250 -158 409 -158 L456 -158 L456 -16 L417 -16 C331 -16 317 27 317 70 L317 147 C317 223 276 273 200 284 C276 295 317 344 317 421 L317 421 Z " />
<glyph glyph-name="bar" unicode="&#x7c;" horiz-adv-x="344" d="M88 727 L88 -158 L256 -158 L256 727 L88 727 Z " />
<glyph glyph-name="braceright" unicode="&#x7d;" horiz-adv-x="482" d="M165 421 C165 344 206 295 282 284 C206 273 165 223 165 147 L165 70 C165 0 120 -16 65 -16 L26 -16 L26 -158 L72 -158 C231 -158 333 -107 333 34 L333 119 C333 197 372 213 430 213 L462 213 L462 354 L430 354 C346 354 333 396 333 449 L333 535 C333 676 231 727 72 727 L26 727 L26 585 L65 585 C149 585 165 544 165 499 L165 421 Z " />
<glyph glyph-name="asciitilde" unicode="&#x7e;" horiz-adv-x="765" d="M559 375 L559 364 C559 333 538 311 502 311 C438 311 374 383 260 383 C158 383 68 315 68 196 L68 171 L206 171 L206 182 C206 213 227 235 264 235 C328 235 391 163 505 163 C607 163 697 231 697 350 L697 375 L559 375 Z " />
<glyph glyph-name="uni00A0" unicode="&#xa0;" horiz-adv-x="215" d="" />
<glyph glyph-name="cent" unicode="&#xa2;" horiz-adv-x="701" d="M667 281 L508 281 C497 254 467 227 410 218 L410 485 C462 475 493 449 505 424 L665 424 C649 525 560 612 410 627 L410 715 L305 715 L305 625 C142 604 38 494 38 352 C38 210 142 100 305 79 L305 -11 L410 -11 L410 77 C562 91 653 173 667 281 L667 281 Z M205 352 C205 416 244 463 305 481 L305 223 C245 241 205 286 205 352 L205 352 Z " />
<glyph glyph-name="sterling" unicode="&#xa3;" horiz-adv-x="735" d="M345 279 L606 279 L606 406 L308 406 C292 433 278 458 278 484 C278 529 326 565 396 565 C467 565 514 535 519 507 L695 507 C680 623 570 717 394 717 C211 717 97 610 97 496 C97 462 108 433 121 406 L40 406 L40 279 L169 279 C161 225 97 170 44 142 L44 0 L690 0 L690 152 L259 152 C309 192 340 234 345 279 L345 279 Z " />
<glyph glyph-name="yen" unicode="&#xa5;" horiz-adv-x="795" d="M780 704 L585 704 L399 431 L212 704 L15 704 L239 378 L105 378 L105 268 L307 268 L307 216 L105 216 L105 106 L307 106 L307 0 L487 0 L487 106 L689 106 L689 216 L487 216 L487 268 L689 268 L689 378 L557 378 L780 704 Z " />
<glyph glyph-name="brokenbar" unicode="&#xa6;" horiz-adv-x="344" d="M88 363 L256 363 L256 727 L88 727 L88 363 Z M256 206 L88 206 L88 -158 L256 -158 L256 206 Z " />
<glyph glyph-name="section" unicode="&#xa7;" horiz-adv-x="673" d="M526 206 C584 229 637 274 637 334 C637 414 570 466 459 483 L309 506 C265 513 244 521 244 543 C244 569 279 586 338 586 C390 586 430 568 438 545 L612 545 C599 654 481 717 341 717 C184 717 69 641 69 530 C69 470 105 427 156 401 C94 378 36 334 36 265 C36 180 116 138 215 124 L364 103 C410 97 432 86 432 63 C432 38 399 18 336 18 C273 18 234 37 225 63 L51 63 C63 -51 179 -113 332 -113 C492 -113 608 -36 608 76 C608 131 577 177 526 206 L526 206 Z M279 259 C240 265 211 279 211 310 C211 336 241 358 277 369 L391 352 C436 345 461 328 461 301 C461 275 435 253 402 241 L279 259 Z " />
<glyph glyph-name="dieresis" unicode="&#xa8;" horiz-adv-x="520" d="M134 756 C83 756 41 717 41 669 C41 622 83 583 134 583 C185 583 227 622 227 669 C227 717 185 756 134 756 L134 756 Z M383 756 C333 756 291 717 291 669 C291 622 333 583 383 583 C435 583 477 622 477 669 C477 717 435 756 383 756 L383 756 Z " />
<glyph glyph-name="copyright" unicode="&#xa9;" horiz-adv-x="1074" d="M537 -111 C817 -111 1044 62 1044 300 C1044 538 817 712 537 712 C255 712 30 538 30 300 C30 62 256 -111 537 -111 L537 -111 Z M537 -3 C316 -3 144 122 144 300 C144 478 315 603 537 603 C757 603 929 478 929 300 C929 122 757 -3 537 -3 L537 -3 Z M536 204 C472 204 419 239 419 300 C419 365 471 398 534 398 C585 398 623 381 635 349 L778 349 C760 457 663 520 534 520 C388 520 271 436 271 300 C271 166 390 81 534 81 C662 81 767 147 778 257 L639 257 C630 224 592 204 536 204 L536 204 Z " />
<glyph glyph-name="guillemotleft" unicode="&#xab;" horiz-adv-x="797" d="M233 266 L448 486 L266 486 L45 266 L266 48 L448 48 L233 266 Z M537 266 L752 486 L569 486 L349 266 L569 48 L752 48 L537 266 Z " />
<glyph glyph-name="logicalnot" unicode="&#xac;" horiz-adv-x="762" d="M72 417 L72 261 L519 261 L519 100 L683 100 L683 417 L72 417 Z " />
<glyph glyph-name="registered" unicode="&#xae;" horiz-adv-x="751" d="M376 743 C184 743 31 622 31 455 C31 289 184 167 376 167 C567 167 720 289 720 455 C720 622 567 743 376 743 L376 743 Z M376 258 C236 258 127 340 127 455 C127 571 237 653 376 653 C515 653 624 571 624 455 C624 340 515 258 376 258 L376 258 Z M507 496 C507 549 468 588 391 588 L247 588 L247 326 L334 326 L334 403 L376 403 L432 326 L530 326 L461 420 C489 437 507 464 507 496 L507 496 Z M334 520 L384 520 C406 520 417 510 417 494 C417 479 406 468 384 468 L334 468 L334 520 Z " />
<glyph glyph-name="macron" unicode="&#xaf;" horiz-adv-x="520" d="M93 727 L93 611 L427 611 L427 727 L93 727 Z " />
<glyph glyph-name="degree" unicode="&#xb0;" horiz-adv-x="566" d="M516 507 C516 625 416 713 283 713 C150 713 50 625 50 507 C50 389 149 300 283 300 C417 300 516 389 516 507 L516 507 Z M186 507 C186 552 228 585 283 585 C339 585 380 552 380 507 C380 462 339 429 283 429 C228 429 186 462 186 507 L186 507 Z " />
<glyph glyph-name="plusminus" unicode="&#xb1;" horiz-adv-x="765" d="M690 282 L690 416 L460 416 L460 562 L305 562 L305 416 L75 416 L75 282 L305 282 L305 139 L75 139 L75 -2 L690 -2 L690 139 L460 139 L460 282 L690 282 Z " />
<glyph glyph-name="acute" unicode="&#xb4;" horiz-adv-x="520" d="M381 764 L231 764 L138 588 L269 588 L381 764 Z " />
<glyph glyph-name="paragraph" unicode="&#xb6;" horiz-adv-x="670" d="M36 495 C36 377 120 287 263 287 L273 287 L273 -101 L405 -101 L405 704 L263 704 C120 704 36 615 36 495 L36 495 Z M470 704 L470 -101 L602 -101 L602 704 L470 704 Z " />
<glyph glyph-name="periodcentered" unicode="&#xb7;" horiz-adv-x="320" d="M161 361 C102 361 55 317 55 262 C55 206 102 162 161 162 C220 162 265 206 265 262 C265 317 220 361 161 361 L161 361 Z " />
<glyph glyph-name="cedilla" unicode="&#xb8;" horiz-adv-x="520" d="M300 15 L202 15 L166 -83 L166 -104 L194 -104 C221 -104 239 -114 239 -137 C239 -159 220 -171 193 -171 L144 -171 L144 -261 L209 -261 C322 -261 375 -211 375 -143 C375 -81 326 -53 285 -47 L300 0 L300 15 Z " />
<glyph glyph-name="guillemotright" unicode="&#xbb;" horiz-adv-x="807" d="M270 266 L55 48 L238 48 L458 266 L238 486 L55 486 L270 266 Z M574 266 L359 48 L541 48 L762 266 L541 486 L359 486 L574 266 Z " />
<glyph glyph-name="AE" unicode="&#xc6;" horiz-adv-x="1236" d="M1190 543 L1190 704 L513 704 L0 0 L209 0 L304 126 L609 126 L609 0 L1190 0 L1190 161 L792 161 L792 279 L1167 279 L1167 434 L792 434 L792 543 L1190 543 Z M609 556 L609 275 L402 275 L609 556 Z " />
<glyph glyph-name="multiply" unicode="&#xd7;" horiz-adv-x="751" d="M681 430 L575 533 L376 370 L177 533 L70 430 L260 275 L70 120 L177 17 L376 180 L574 18 L681 121 L492 275 L681 430 Z " />
<glyph glyph-name="Thorn" unicode="&#xde;" horiz-adv-x="749" d="M429 596 L254 596 L254 704 L68 704 L68 0 L254 0 L254 120 L433 120 C617 120 717 218 717 358 C717 499 622 596 429 596 L429 596 Z M412 275 L254 275 L254 441 L411 441 C492 441 529 410 529 358 C529 307 490 275 412 275 L412 275 Z " />
<glyph glyph-name="germandbls" unicode="&#xdf;" horiz-adv-x="736" d="M58 0 L235 0 L235 474 C235 545 299 578 372 578 C439 578 489 548 489 507 C489 469 459 437 384 437 L329 437 L329 298 L403 298 C487 298 528 268 528 224 C528 181 485 148 399 148 L315 148 L315 0 L420 0 C604 0 705 95 705 211 C705 310 619 367 546 384 C609 403 664 449 664 526 C664 643 541 727 372 727 C210 727 58 648 58 483 L58 0 Z " />
<glyph glyph-name="ae" unicode="&#xe6;" horiz-adv-x="1093" d="M1062 212 L1062 266 C1062 430 943 536 767 536 C675 536 598 506 545 453 C505 508 431 536 331 536 C171 536 75 457 56 364 L218 364 C229 385 268 404 331 404 C399 404 445 385 445 346 L445 328 L297 328 C130 328 30 266 30 156 C30 50 137 -13 274 -13 C389 -13 474 29 525 89 C577 24 663 -13 772 -13 C949 -13 1035 79 1054 156 L885 156 C873 139 833 120 767 120 C683 120 616 161 616 210 L616 212 L1062 212 Z M758 404 C834 404 885 374 891 328 L619 328 C631 377 685 404 758 404 L758 404 Z M307 118 C247 118 206 137 206 166 C206 195 248 213 309 213 L445 213 L445 197 C445 145 382 118 307 118 L307 118 Z " />
<glyph glyph-name="divide" unicode="&#xf7;" horiz-adv-x="768" d="M381 564 C327 564 284 525 284 477 C284 426 327 388 381 388 C433 388 476 426 476 477 C476 525 433 564 381 564 L381 564 Z M695 205 L695 345 L72 345 L72 205 L695 205 Z M381 161 C327 161 284 122 284 73 C284 23 329 -14 381 -14 C433 -14 476 23 476 73 C476 124 432 161 381 161 L381 161 Z " />
<glyph glyph-name="thorn" unicode="&#xfe;" horiz-adv-x="731" d="M422 536 C337 536 273 504 234 465 L234 727 L58 727 L58 -191 L234 -191 L234 58 C269 18 333 -13 417 -13 C583 -13 700 94 700 261 C700 432 580 536 422 536 L422 536 Z M377 136 C290 136 231 184 231 259 L231 263 C231 338 293 387 377 387 C464 387 525 338 525 261 C525 184 465 136 377 136 L377 136 Z " />
<glyph glyph-name="dotlessi" unicode="&#x131;" horiz-adv-x="293" d="M235 523 L58 523 L58 0 L235 0 L235 523 Z " />
<glyph glyph-name="OE" unicode="&#x152;" horiz-adv-x="1241" d="M1195 543 L1195 704 L463 704 C204 704 38 570 38 352 C38 134 204 0 463 0 L1195 0 L1195 161 L796 161 L796 279 L1171 279 L1171 434 L796 434 L796 543 L1195 543 Z M227 352 C227 473 328 546 475 546 L610 546 L610 158 L475 158 C328 158 227 231 227 352 L227 352 Z " />
<glyph glyph-name="oe" unicode="&#x153;" horiz-adv-x="1154" d="M1123 212 L1123 266 C1123 430 1004 536 828 536 C727 536 644 500 591 436 C540 500 455 536 346 536 C168 536 31 428 31 261 C31 94 168 -13 346 -13 C455 -13 539 22 590 84 C643 22 727 -13 833 -13 C1009 -13 1096 78 1116 156 L946 156 C935 140 895 120 829 120 C744 120 678 161 678 210 L678 212 L1123 212 Z M820 404 C895 404 945 374 951 328 L681 328 C693 376 745 404 820 404 L820 404 Z M356 136 C266 136 208 189 208 261 C208 333 267 387 356 387 C448 387 506 332 506 261 C506 189 447 136 356 136 L356 136 Z " />
<glyph glyph-name="uni0237" unicode="&#x237;" horiz-adv-x="314" d="M-32 -194 L6 -194 C218 -194 256 -98 256 15 L256 523 L79 523 L79 21 C79 -57 16 -57 -9 -57 L-32 -57 L-32 -194 Z " />
<glyph glyph-name="circumflex" unicode="&#x2c6;" horiz-adv-x="520" d="M190 588 L260 669 L330 588 L470 588 L328 764 L192 764 L50 588 L190 588 Z " />
<glyph glyph-name="caron" unicode="&#x2c7;" horiz-adv-x="520" d="M190 764 L50 764 L192 588 L328 588 L470 764 L330 764 L260 683 L190 764 Z " />
<glyph glyph-name="breve" unicode="&#x2d8;" horiz-adv-x="520" d="M184 761 L62 761 C62 652 132 580 260 580 C388 580 458 652 458 761 L336 761 C336 722 315 686 260 686 C205 686 184 722 184 761 L184 761 Z " />
<glyph glyph-name="dotaccent" unicode="&#x2d9;" horiz-adv-x="520" d="M259 767 C206 767 164 726 164 673 C164 619 206 578 259 578 C313 578 355 619 355 673 C355 726 313 767 259 767 L259 767 Z " />
<glyph glyph-name="ring" unicode="&#x2da;" horiz-adv-x="520" d="M389 701 C389 772 333 824 260 824 C187 824 131 772 131 701 C131 630 187 578 260 578 C333 578 389 630 389 701 L389 701 Z M218 701 C218 725 237 743 260 743 C283 743 302 725 302 701 C302 677 283 659 260 659 C237 659 218 677 218 701 L218 701 Z " />
<glyph glyph-name="ogonek" unicode="&#x2db;" horiz-adv-x="520" d="M356 0 L267 23 C206 -5 144 -63 144 -130 C144 -199 197 -244 302 -244 L376 -244 L376 -137 L336 -137 C305 -137 286 -121 286 -93 C286 -61 309 -35 356 0 L356 0 Z " />
<glyph glyph-name="tilde" unicode="&#x2dc;" horiz-adv-x="520" d="M351 753 L351 739 C351 715 338 703 320 703 C291 703 255 760 190 760 C117 760 68 710 68 612 L68 588 L168 588 L168 602 C168 626 181 638 199 638 C228 638 264 581 329 581 C402 581 451 631 451 729 L451 753 L351 753 Z " />
<glyph glyph-name="hungarumlaut" unicode="&#x2dd;" horiz-adv-x="520" d="M276 764 L131 764 L43 588 L169 588 L276 764 Z M476 764 L331 764 L243 588 L369 588 L476 764 Z " />
<glyph glyph-name="gravecomb" unicode="&#x300;" d="M-183 764 L-71 588 L60 588 L-33 764 L-183 764 Z " />
<glyph glyph-name="acutecomb" unicode="&#x301;" d="M183 764 L33 764 L-60 588 L71 588 L183 764 Z " />
<glyph glyph-name="uni0302" unicode="&#x302;" d="M-70 588 L0 669 L70 588 L210 588 L68 764 L-68 764 L-210 588 L-70 588 Z " />
<glyph glyph-name="tildecomb" unicode="&#x303;" d="M91 753 L91 739 C91 715 78 703 60 703 C31 703 -5 760 -70 760 C-143 760 -192 710 -192 612 L-192 588 L-92 588 L-92 602 C-92 626 -79 638 -61 638 C-32 638 4 581 69 581 C142 581 191 631 191 729 L191 753 L91 753 Z " />
<glyph glyph-name="uni0304" unicode="&#x304;" d="M-167 727 L-167 611 L167 611 L167 727 L-167 727 Z " />
<glyph glyph-name="uni0306" unicode="&#x306;" d="M-76 761 L-198 761 C-198 652 -128 580 0 580 C128 580 198 652 198 761 L76 761 C76 722 55 686 0 686 C-55 686 -76 722 -76 761 L-76 761 Z " />
<glyph glyph-name="uni0307" unicode="&#x307;" d="M0 767 C-53 767 -95 726 -95 673 C-95 619 -53 578 0 578 C54 578 96 619 96 673 C96 726 54 767 0 767 L0 767 Z " />
<glyph glyph-name="uni0308" unicode="&#x308;" d="M-125 756 C-176 756 -218 717 -218 669 C-218 622 -176 583 -125 583 C-74 583 -32 622 -32 669 C-32 717 -74 756 -125 756 L-125 756 Z M124 756 C74 756 32 717 32 669 C32 622 74 583 124 583 C176 583 218 622 218 669 C218 717 176 756 124 756 L124 756 Z " />
<glyph glyph-name="uni030A" unicode="&#x30a;" d="M129 701 C129 772 73 824 0 824 C-73 824 -129 772 -129 701 C-129 630 -73 578 0 578 C73 578 129 630 129 701 L129 701 Z M-42 701 C-42 725 -23 743 0 743 C23 743 42 725 42 701 C42 677 23 659 0 659 C-23 659 -42 677 -42 701 L-42 701 Z " />
<glyph glyph-name="uni030B" unicode="&#x30b;" d="M71 764 L-74 764 L-162 588 L-36 588 L71 764 Z M271 764 L126 764 L38 588 L164 588 L271 764 Z " />
<glyph glyph-name="uni030C" unicode="&#x30c;" d="M-70 764 L-210 764 L-68 588 L68 588 L210 764 L70 764 L0 683 L-70 764 Z " />
<glyph glyph-name="uni0312" unicode="&#x312;" d="M-93 671 C-93 618 -51 578 2 578 C56 578 94 615 94 666 C94 711 67 735 39 747 L81 844 L-32 844 L-79 736 C-88 715 -93 697 -93 671 L-93 671 Z " />
<glyph glyph-name="uni0326" unicode="&#x326;" d="M93 -149 C93 -96 51 -56 -2 -56 C-56 -56 -94 -93 -94 -144 C-94 -189 -67 -213 -39 -225 L-81 -322 L32 -322 L79 -214 C88 -193 93 -175 93 -149 L93 -149 Z " />
<glyph glyph-name="uni0327" unicode="&#x327;" d="M53 15 L-45 15 L-81 -83 L-81 -104 L-53 -104 C-26 -104 -8 -114 -8 -137 C-8 -159 -27 -171 -54 -171 L-103 -171 L-103 -261 L-38 -261 C75 -261 128 -211 128 -143 C128 -81 79 -53 38 -47 L53 0 L53 15 Z " />
<glyph glyph-name="uni0328" unicode="&#x328;" d="M0 0 L-89 23 C-150 -5 -212 -63 -212 -130 C-212 -199 -159 -244 -54 -244 L20 -244 L20 -137 L-20 -137 C-51 -137 -70 -121 -70 -93 C-70 -61 -47 -35 0 0 L0 0 Z " />
<glyph glyph-name="tonos" unicode="&#x384;" horiz-adv-x="520" d="M381 764 L231 764 L138 588 L269 588 L381 764 Z " />
<glyph glyph-name="dieresistonos" unicode="&#x385;" horiz-adv-x="520" d="M355 764 L229 764 L176 588 L283 588 L355 764 Z M102 740 C62 740 30 708 30 669 C30 630 62 598 102 598 C142 598 174 630 174 669 C174 708 142 740 102 740 L102 740 Z M417 740 C377 740 345 708 345 669 C345 630 377 598 417 598 C457 598 489 630 489 669 C489 708 457 740 417 740 L417 740 Z " />
<glyph glyph-name="uni0401" unicode="&#x401;" horiz-adv-x="702" d="M240 765 C291 765 333 804 333 851 C333 898 291 937 240 937 C189 937 147 899 147 851 C147 803 190 765 240 765 L240 765 Z M492 765 C543 765 585 804 585 851 C585 898 543 937 492 937 C441 937 399 899 399 851 C399 803 442 765 492 765 L492 765 Z M656 543 L656 704 L68 704 L68 0 L656 0 L656 161 L254 161 L254 279 L632 279 L632 434 L254 434 L254 543 L656 543 Z " />
<glyph glyph-name="uni0402" unicode="&#x402;" horiz-adv-x="1008" d="M676 444 C598 444 524 429 477 410 L477 545 L741 545 L741 704 L33 704 L33 545 L290 545 L290 0 L477 0 L477 254 C522 275 589 287 646 287 C742 287 789 263 789 212 C789 162 737 140 651 140 L624 140 L624 -17 L680 -17 C874 -17 975 73 975 216 C975 358 858 444 676 444 L676 444 Z " />
<glyph glyph-name="uni0404" unicode="&#x404;" horiz-adv-x="867" d="M649 242 C634 200 573 148 452 148 C344 148 258 193 234 281 L539 281 L539 431 L236 431 C262 517 346 556 451 556 C565 556 630 510 648 462 L832 462 C808 593 678 717 451 717 C214 717 38 576 38 352 C38 117 225 -13 451 -13 C700 -13 818 130 833 242 L649 242 Z " />
<glyph glyph-name="uni0405" unicode="&#x405;" horiz-adv-x="765" d="M38 211 C59 75 196 -13 393 -13 C600 -13 728 80 728 221 C728 342 643 413 490 429 L331 446 C266 453 237 469 237 500 C237 539 299 564 376 564 C459 564 515 541 532 499 L716 499 C694 635 560 717 376 717 C190 717 49 621 49 487 C49 367 132 302 278 285 L445 266 C500 260 540 243 540 207 C540 168 481 139 393 139 C297 139 238 170 224 211 L38 211 Z " />
<glyph glyph-name="uni0406" unicode="&#x406;" horiz-adv-x="322" d="M254 704 L68 704 L68 0 L254 0 L254 704 Z " />
<glyph glyph-name="uni0407" unicode="&#x407;" horiz-adv-x="322" d="M37 937 C-14 937 -56 898 -56 850 C-56 803 -14 764 37 764 C88 764 130 803 130 850 C130 898 88 937 37 937 L37 937 Z M286 937 C236 937 194 898 194 850 C194 803 236 764 286 764 C338 764 380 803 380 850 C380 898 338 937 286 937 L286 937 Z M254 704 L68 704 L68 0 L254 0 L254 704 Z " />
<glyph glyph-name="uni0408" unicode="&#x408;" horiz-adv-x="694" d="M20 214 C25 79 146 -13 318 -13 C508 -13 629 80 629 246 L629 704 L443 704 L443 255 C443 186 395 150 320 150 C252 150 208 180 200 214 L20 214 Z " />
<glyph glyph-name="uni0409" unicode="&#x409;" horiz-adv-x="1298" d="M983 475 L809 475 L809 704 L206 704 L169 286 C161 198 124 160 32 160 L10 160 L10 -2 L60 -2 C268 -2 333 119 347 274 L372 543 L623 543 L623 0 L987 0 C1167 0 1266 98 1266 238 C1266 378 1173 475 983 475 L983 475 Z M968 155 L809 155 L809 320 L968 320 C1042 320 1078 290 1078 238 C1078 187 1040 155 968 155 L968 155 Z " />
<glyph glyph-name="uni040A" unicode="&#x40a;" horiz-adv-x="1283" d="M979 455 L801 455 L801 704 L615 704 L615 454 L254 454 L254 704 L68 704 L68 0 L254 0 L254 293 L615 293 L615 0 L983 0 C1163 0 1251 89 1251 229 C1251 367 1159 455 979 455 L979 455 Z M965 154 L801 154 L801 301 L964 301 C1031 301 1064 274 1064 229 C1064 183 1031 154 965 154 L965 154 Z " />
<glyph glyph-name="uni040B" unicode="&#x40b;" horiz-adv-x="1019" d="M664 441 C591 441 523 426 477 405 L477 545 L741 545 L741 704 L33 704 L33 545 L290 545 L290 0 L477 0 L477 250 C516 270 568 281 625 281 C724 281 779 241 779 164 L779 0 L965 0 L965 169 C965 357 840 441 664 441 L664 441 Z " />
<glyph glyph-name="uni040F" unicode="&#x40f;" horiz-adv-x="867" d="M799 704 L613 704 L613 162 L254 162 L254 704 L68 704 L68 0 L345 0 L345 -154 L522 -154 L522 0 L799 0 L799 704 Z " />
<glyph glyph-name="uni0410" unicode="&#x410;" horiz-adv-x="859" d="M654 0 L849 0 L526 704 L332 704 L10 0 L206 0 L261 126 L597 126 L654 0 Z M429 505 L535 275 L324 275 L429 505 Z " />
<glyph glyph-name="uni0411" unicode="&#x411;" horiz-adv-x="744" d="M439 445 L254 445 L254 545 L646 545 L646 704 L68 704 L68 0 L438 0 C615 0 711 96 711 223 C711 361 619 445 439 445 L439 445 Z M424 152 L254 152 L254 301 L424 301 C491 301 524 271 524 227 C524 183 491 152 424 152 L424 152 Z " />
<glyph glyph-name="uni0412" unicode="&#x412;" horiz-adv-x="767" d="M587 377 C649 398 699 440 699 520 C699 621 626 704 438 704 L68 704 L68 0 L458 0 C650 0 733 87 733 204 C733 304 656 361 587 377 L587 377 Z M512 492 C512 457 487 427 423 427 L254 427 L254 555 L419 555 C483 555 512 530 512 492 L512 492 Z M450 149 L254 149 L254 288 L449 288 C513 288 545 262 545 219 C545 175 512 149 450 149 L450 149 Z " />
<glyph glyph-name="uni0413" unicode="&#x413;" horiz-adv-x="681" d="M648 704 L68 704 L68 0 L254 0 L254 543 L648 543 L648 704 Z " />
<glyph glyph-name="uni0414" unicode="&#x414;" horiz-adv-x="946" d="M820 161 L820 704 L195 704 L168 381 C160 285 136 190 78 161 L10 161 L10 -134 L188 -134 L188 0 L748 0 L748 -134 L926 -134 L926 161 L820 161 Z M342 357 L360 543 L634 543 L634 161 L278 161 C321 207 333 269 342 357 L342 357 Z " />
<glyph glyph-name="uni0415" unicode="&#x415;" horiz-adv-x="702" d="M656 543 L656 704 L68 704 L68 0 L656 0 L656 161 L254 161 L254 279 L632 279 L632 434 L254 434 L254 543 L656 543 Z " />
<glyph glyph-name="uni0416" unicode="&#x416;" horiz-adv-x="1201" d="M1194 0 L865 366 L1186 704 L971 704 L690 408 L690 704 L511 704 L511 408 L230 704 L15 704 L335 362 L7 0 L226 0 L511 314 L511 0 L690 0 L690 314 L975 0 L1194 0 Z " />
<glyph glyph-name="uni0417" unicode="&#x417;" horiz-adv-x="745" d="M39 495 L220 495 C232 536 285 560 365 560 C438 560 491 536 491 498 C491 459 448 433 359 433 L264 433 L264 280 L377 280 C466 280 523 260 523 215 C523 172 470 144 378 144 C283 144 226 172 213 216 L30 216 C42 78 173 -13 378 -13 C574 -13 711 66 711 208 C711 301 624 356 549 370 C617 387 679 439 679 518 C679 638 556 717 369 717 C191 717 55 632 39 495 L39 495 Z " />
<glyph glyph-name="uni0418" unicode="&#x418;" horiz-adv-x="884" d="M633 704 L251 247 L251 704 L68 704 L68 0 L251 0 L633 458 L633 0 L816 0 L816 704 L633 704 Z " />
<glyph glyph-name="uni0419" unicode="&#x419;" horiz-adv-x="884" d="M441 751 C575 751 650 825 650 932 L523 932 C523 898 502 863 441 863 C380 863 359 898 359 932 L232 932 C232 825 307 751 441 751 L441 751 Z M633 704 L251 247 L251 704 L68 704 L68 0 L251 0 L633 458 L633 0 L816 0 L816 704 L633 704 Z " />
<glyph glyph-name="uni041A" unicode="&#x41a;" horiz-adv-x="801" d="M797 0 L438 367 L788 704 L559 703 L254 414 L254 704 L68 704 L68 0 L254 0 L254 305 L556 0 L797 0 Z " />
<glyph glyph-name="uni041B" unicode="&#x41b;" horiz-adv-x="877" d="M206 704 L169 286 C161 198 124 160 32 160 L10 160 L10 -2 L60 -2 C268 -2 333 119 347 274 L372 543 L623 543 L623 0 L809 0 L809 704 L206 704 Z " />
<glyph glyph-name="uni041C" unicode="&#x41c;" horiz-adv-x="1091" d="M791 704 L547 238 L301 704 L68 704 L68 0 L242 0 L242 466 L482 8 L609 8 L851 470 L851 0 L1023 0 L1023 704 L791 704 Z " />
<glyph glyph-name="uni041D" unicode="&#x41d;" horiz-adv-x="871" d="M617 704 L617 442 L254 442 L254 704 L68 704 L68 0 L254 0 L254 278 L617 278 L617 0 L803 0 L803 704 L617 704 Z " />
<glyph glyph-name="uni041E" unicode="&#x41e;" horiz-adv-x="914" d="M457 717 C212 717 38 574 38 352 C38 130 212 -13 457 -13 C702 -13 876 130 876 352 C876 574 702 717 457 717 L457 717 Z M457 150 C314 150 227 236 227 352 C227 468 314 554 457 554 C601 554 687 467 687 352 C687 237 601 150 457 150 L457 150 Z " />
<glyph glyph-name="uni041F" unicode="&#x41f;" horiz-adv-x="867" d="M68 704 L68 0 L254 0 L254 543 L613 543 L613 0 L799 0 L799 704 L68 704 Z " />
<glyph glyph-name="uni0420" unicode="&#x420;" horiz-adv-x="751" d="M431 704 L68 704 L68 0 L254 0 L254 216 L436 216 C625 216 719 321 719 460 C719 601 629 704 431 704 L431 704 Z M415 372 L254 372 L254 549 L414 549 C494 549 531 513 531 460 C531 410 494 372 415 372 L415 372 Z " />
<glyph glyph-name="uni0421" unicode="&#x421;" horiz-adv-x="865" d="M646 253 C634 208 569 150 451 150 C323 150 227 230 227 352 C227 479 323 554 448 554 C556 554 625 508 645 451 L830 451 C810 597 677 717 448 717 C212 717 38 573 38 352 C38 119 224 -13 449 -13 C697 -13 820 126 831 253 L646 253 Z " />
<glyph glyph-name="uni0422" unicode="&#x422;" horiz-adv-x="775" d="M745 704 L30 704 L30 543 L295 543 L295 0 L481 0 L481 543 L745 543 L745 704 Z " />
<glyph glyph-name="uni0423" unicode="&#x423;" horiz-adv-x="826" d="M618 704 L424 357 L209 704 L10 704 L327 190 L212 0 L413 0 L816 704 L618 704 Z " />
<glyph glyph-name="uni0424" unicode="&#x424;" horiz-adv-x="1052" d="M617 651 L617 724 L436 724 L436 651 C215 646 34 555 34 356 C34 158 215 65 436 60 L436 -11 L617 -11 L617 60 C836 65 1018 158 1018 356 C1018 556 836 646 617 651 L617 651 Z M436 213 C301 214 217 262 217 356 C217 451 301 498 436 498 L436 213 Z M617 213 L617 498 C750 498 835 452 835 356 C835 261 750 214 617 213 L617 213 Z " />
<glyph glyph-name="uni0425" unicode="&#x425;" horiz-adv-x="851" d="M833 0 L547 351 L830 704 L624 704 L429 467 L236 704 L21 704 L305 353 L18 0 L228 0 L423 240 L619 0 L833 0 Z " />
<glyph glyph-name="uni0426" unicode="&#x426;" horiz-adv-x="926" d="M799 162 L799 704 L613 704 L613 162 L254 162 L254 704 L68 704 L68 0 L728 0 L728 -134 L906 -134 L906 162 L799 162 Z " />
<glyph glyph-name="uni0427" unicode="&#x427;" horiz-adv-x="821" d="M567 704 L567 426 C526 408 472 398 415 398 C315 398 240 440 240 526 L240 704 L54 704 L54 521 C54 323 194 237 379 237 C456 237 521 249 567 270 L567 0 L753 0 L753 704 L567 704 Z " />
<glyph glyph-name="uni0428" unicode="&#x428;" horiz-adv-x="1200" d="M946 704 L946 162 L693 162 L693 704 L507 704 L507 162 L254 162 L254 704 L68 704 L68 0 L1132 0 L1132 704 L946 704 Z " />
<glyph glyph-name="uni0429" unicode="&#x429;" horiz-adv-x="1259" d="M1132 162 L1132 704 L946 704 L946 162 L693 162 L693 704 L507 704 L507 162 L254 162 L254 704 L68 704 L68 0 L1061 0 L1061 -134 L1239 -134 L1239 162 L1132 162 Z " />
<glyph glyph-name="uni042A" unicode="&#x42a;" horiz-adv-x="896" d="M581 475 L407 475 L407 704 L30 704 L30 542 L221 542 L221 0 L585 0 C765 0 864 98 864 238 C864 378 771 475 581 475 L581 475 Z M566 155 L407 155 L407 320 L566 320 C640 320 676 290 676 238 C676 187 638 155 566 155 L566 155 Z " />
<glyph glyph-name="uni042B" unicode="&#x42b;" horiz-adv-x="1049" d="M428 475 L254 475 L254 704 L68 704 L68 0 L432 0 C612 0 711 98 711 238 C711 378 618 475 428 475 L428 475 Z M796 704 L796 0 L981 0 L981 704 L796 704 Z M413 155 L254 155 L254 320 L413 320 C487 320 523 290 523 238 C523 187 485 155 413 155 L413 155 Z " />
<glyph glyph-name="uni042C" unicode="&#x42c;" horiz-adv-x="743" d="M428 475 L254 475 L254 704 L68 704 L68 0 L432 0 C612 0 711 98 711 238 C711 378 618 475 428 475 L428 475 Z M413 155 L254 155 L254 320 L413 320 C487 320 523 290 523 238 C523 187 485 155 413 155 L413 155 Z " />
<glyph glyph-name="uni042D" unicode="&#x42d;" horiz-adv-x="867" d="M417 717 C188 717 59 592 36 462 L219 462 C237 512 307 556 417 556 C521 556 605 517 631 431 L328 431 L328 281 L633 281 C609 193 524 148 415 148 C295 148 233 200 218 242 L34 242 C48 132 165 -13 416 -13 C642 -13 829 117 829 352 C829 585 654 717 417 717 L417 717 Z " />
<glyph glyph-name="uni042E" unicode="&#x42e;" horiz-adv-x="1231" d="M779 717 C569 717 414 612 374 442 L254 442 L254 704 L68 704 L68 0 L254 0 L254 278 L371 278 C405 99 565 -13 779 -13 C1023 -13 1193 130 1193 352 C1193 574 1023 717 779 717 L779 717 Z M779 150 C636 150 553 237 553 352 C553 467 636 554 779 554 C921 554 1004 468 1004 352 C1004 236 921 150 779 150 L779 150 Z " />
<glyph glyph-name="uni042F" unicode="&#x42f;" horiz-adv-x="779" d="M355 704 C161 704 61 610 61 463 C61 368 112 294 200 254 L10 0 L212 0 L377 224 L526 224 L526 0 L711 0 L711 704 L355 704 Z M370 379 C289 379 249 414 249 463 C249 514 288 549 370 549 L526 549 L526 379 L370 379 Z " />
<glyph glyph-name="uni0430" unicode="&#x430;" horiz-adv-x="671" d="M340 536 C172 536 75 457 56 364 L219 364 C230 385 268 404 332 404 C398 404 444 385 444 346 L444 328 L286 328 C121 328 30 266 30 155 C30 48 132 -13 254 -13 C347 -13 416 15 455 58 L455 0 L617 0 L617 340 C617 472 506 536 340 536 L340 536 Z M307 118 C246 118 207 137 207 166 C207 195 238 213 299 213 L444 213 L444 197 C444 145 380 118 307 118 L307 118 Z " />
<glyph glyph-name="uni0431" unicode="&#x431;" horiz-adv-x="728" d="M420 509 C329 509 249 484 200 428 C215 535 277 565 387 576 L634 602 L634 751 L375 718 C146 689 41 577 41 322 C41 113 162 -13 381 -13 C579 -13 697 109 697 253 C697 404 590 509 420 509 L420 509 Z M372 131 C272 131 221 187 221 253 C221 316 278 370 373 370 C470 370 520 318 520 253 C520 188 472 131 372 131 L372 131 Z " />
<glyph glyph-name="uni0432" unicode="&#x432;" horiz-adv-x="645" d="M490 278 C548 294 590 332 590 390 C590 468 531 523 390 523 L58 523 L58 0 L397 0 C547 0 614 67 614 151 C614 224 554 266 490 278 L490 278 Z M417 364 C417 339 401 322 358 322 L231 322 L231 406 L359 406 C399 406 417 390 417 364 L417 364 Z M371 117 L231 117 L231 209 L371 209 C416 209 438 193 438 164 C438 135 415 117 371 117 L371 117 Z " />
<glyph glyph-name="uni0433" unicode="&#x433;" horiz-adv-x="545" d="M518 523 L58 523 L58 0 L235 0 L235 375 L518 375 L518 523 Z " />
<glyph glyph-name="uni0434" unicode="&#x434;" horiz-adv-x="793" d="M677 148 L677 523 L155 523 L131 282 C124 219 111 171 66 148 L15 148 L15 -128 L185 -128 L185 0 L599 0 L599 -128 L769 -128 L769 148 L677 148 Z M295 267 L308 375 L501 375 L501 148 L251 148 C283 179 290 219 295 267 L295 267 Z " />
<glyph glyph-name="uni0435" unicode="&#x435;" horiz-adv-x="682" d="M651 212 L651 266 C651 430 529 536 345 536 C160 536 31 429 31 258 C31 87 165 -13 354 -13 C537 -13 624 78 644 156 L476 156 C464 140 425 120 357 120 C273 120 207 161 207 210 L207 212 L651 212 Z M348 404 C424 404 475 374 481 328 L210 328 C222 379 277 404 348 404 L348 404 Z " />
<glyph glyph-name="uni0436" unicode="&#x436;" horiz-adv-x="988" d="M982 0 L750 276 L978 523 L785 523 L581 306 L581 523 L407 523 L407 305 L203 523 L9 523 L239 270 L6 0 L204 0 L407 238 L407 0 L581 0 L581 237 L784 0 L982 0 Z " />
<glyph glyph-name="uni0437" unicode="&#x437;" horiz-adv-x="629" d="M36 363 L203 363 C213 390 256 404 308 404 C362 404 400 391 400 365 C400 340 368 324 307 324 L232 324 L232 202 L319 202 C370 202 421 196 421 164 C421 134 377 118 315 118 C254 118 210 133 196 163 L28 163 C43 59 151 -13 317 -13 C491 -13 598 61 598 153 C598 227 532 266 473 277 C524 292 575 321 575 386 C575 478 467 536 321 536 C170 536 52 475 36 363 L36 363 Z " />
<glyph glyph-name="uni0438" unicode="&#x438;" horiz-adv-x="719" d="M495 523 L231 225 L231 523 L58 523 L58 0 L224 0 L489 299 L489 0 L661 0 L661 523 L495 523 Z " />
<glyph glyph-name="uni0439" unicode="&#x439;" horiz-adv-x="719" d="M360 569 C488 569 558 641 558 750 L436 750 C436 711 415 675 360 675 C305 675 284 711 284 750 L162 750 C162 641 232 569 360 569 L360 569 Z M495 523 L231 225 L231 523 L58 523 L58 0 L224 0 L489 299 L489 0 L661 0 L661 523 L495 523 Z " />
<glyph glyph-name="uni043A" unicode="&#x43a;" horiz-adv-x="663" d="M663 0 L399 278 L656 523 L451 523 L235 319 L235 523 L58 523 L58 0 L235 0 L235 227 L449 0 L663 0 Z " />
<glyph glyph-name="uni043B" unicode="&#x43b;" horiz-adv-x="729" d="M165 523 L134 223 C128 165 97 146 36 146 L15 146 L15 -2 L62 -2 C227 -2 288 74 302 211 L319 375 L494 375 L494 0 L671 0 L671 523 L165 523 Z " />
<glyph glyph-name="uni043C" unicode="&#x43c;" horiz-adv-x="926" d="M644 523 L466 202 L287 523 L58 523 L58 0 L225 0 L225 331 L406 0 L519 0 L700 333 L700 0 L868 0 L868 523 L644 523 Z " />
<glyph glyph-name="uni043D" unicode="&#x43d;" horiz-adv-x="712" d="M477 523 L477 341 L235 341 L235 523 L58 523 L58 0 L235 0 L235 193 L477 193 L477 0 L654 0 L654 523 L477 523 Z " />
<glyph glyph-name="uni043E" unicode="&#x43e;" horiz-adv-x="712" d="M356 536 C168 536 31 429 31 261 C31 94 168 -13 356 -13 C545 -13 681 94 681 261 C681 429 545 536 356 536 L356 536 Z M356 136 C266 136 208 189 208 261 C208 334 266 387 356 387 C447 387 506 334 506 261 C506 189 447 136 356 136 L356 136 Z " />
<glyph glyph-name="uni043F" unicode="&#x43f;" horiz-adv-x="708" d="M58 523 L58 0 L235 0 L235 375 L473 375 L473 0 L650 0 L650 523 L58 523 Z " />
<glyph glyph-name="uni0440" unicode="&#x440;" horiz-adv-x="731" d="M422 536 C331 536 264 501 228 458 L228 523 L58 523 L58 -191 L235 -191 L235 57 C271 15 336 -13 418 -13 C583 -13 700 94 700 261 C700 432 581 536 422 536 L422 536 Z M377 136 C290 136 232 184 232 259 L232 263 C232 338 293 387 377 387 C464 387 524 338 524 261 C524 184 465 136 377 136 L377 136 Z " />
<glyph glyph-name="uni0441" unicode="&#x441;" horiz-adv-x="677" d="M353 136 C270 136 208 183 208 261 C208 337 268 387 352 387 C423 387 464 357 479 326 L647 326 C633 440 526 536 352 536 C159 536 31 417 31 261 C31 105 160 -13 352 -13 C526 -13 636 75 649 197 L482 197 C470 166 430 136 353 136 L353 136 Z " />
<glyph glyph-name="uni0442" unicode="&#x442;" horiz-adv-x="620" d="M596 523 L24 523 L24 375 L221 375 L221 0 L398 0 L398 375 L596 375 L596 523 Z " />
<glyph glyph-name="uni0443" unicode="&#x443;" horiz-adv-x="676" d="M488 523 L338 201 L189 523 L0 523 L244 17 L144 -191 L332 -191 L676 523 L488 523 Z " />
<glyph glyph-name="uni0444" unicode="&#x444;" horiz-adv-x="935" d="M555 536 L555 723 L381 723 L381 536 C165 530 31 419 31 261 C31 104 164 -7 381 -13 L381 -191 L555 -191 L555 -13 C770 -7 904 103 904 261 C904 419 770 530 555 536 L555 536 Z M381 130 C269 133 207 188 207 261 C207 338 274 390 381 392 L381 130 Z M728 261 C728 185 661 133 555 130 L555 392 C661 390 728 338 728 261 L728 261 Z " />
<glyph glyph-name="uni0445" unicode="&#x445;" horiz-adv-x="672" d="M668 0 L451 259 L665 523 L471 523 L341 362 L210 523 L6 523 L219 262 L4 0 L200 0 L331 157 L463 0 L668 0 Z " />
<glyph glyph-name="uni0446" unicode="&#x446;" horiz-adv-x="765" d="M650 148 L650 523 L474 523 L474 148 L235 148 L235 523 L58 523 L58 0 L572 0 L572 -128 L741 -128 L741 148 L650 148 Z " />
<glyph glyph-name="uni0447" unicode="&#x447;" horiz-adv-x="682" d="M447 523 L447 331 C419 320 385 313 349 313 C272 313 223 341 223 398 L223 523 L46 523 L46 377 C46 227 162 165 289 165 C351 165 407 176 447 195 L447 0 L624 0 L624 523 L447 523 Z " />
<glyph glyph-name="uni0448" unicode="&#x448;" horiz-adv-x="1010" d="M775 523 L775 148 L593 148 L593 523 L417 523 L417 148 L235 148 L235 523 L58 523 L58 0 L952 0 L952 523 L775 523 Z " />
<glyph glyph-name="uni0449" unicode="&#x449;" horiz-adv-x="1067" d="M952 148 L952 523 L775 523 L775 148 L593 148 L593 523 L417 523 L417 148 L235 148 L235 523 L58 523 L58 0 L873 0 L873 -128 L1043 -128 L1043 148 L952 148 Z " />
<glyph glyph-name="uni044A" unicode="&#x44a;" horiz-adv-x="760" d="M499 384 L365 384 L365 523 L24 523 L24 379 L191 379 L191 0 L500 0 C656 0 730 83 730 193 C730 302 657 384 499 384 L499 384 Z M484 137 L365 137 L365 247 L484 247 C533 247 557 226 557 193 C557 161 533 137 484 137 L484 137 Z " />
<glyph glyph-name="uni044B" unicode="&#x44b;" horiz-adv-x="903" d="M366 384 L232 384 L232 523 L58 523 L58 0 L367 0 C523 0 597 83 597 193 C597 302 524 384 366 384 L366 384 Z M672 523 L672 0 L845 0 L845 523 L672 523 Z M351 137 L232 137 L232 247 L351 247 C400 247 424 226 424 193 C424 161 400 137 351 137 L351 137 Z " />
<glyph glyph-name="uni044C" unicode="&#x44c;" horiz-adv-x="627" d="M366 384 L232 384 L232 523 L58 523 L58 0 L367 0 C523 0 597 83 597 193 C597 302 524 384 366 384 L366 384 Z M351 137 L232 137 L232 247 L351 247 C400 247 424 226 424 193 C424 161 400 137 351 137 L351 137 Z " />
<glyph glyph-name="uni044D" unicode="&#x44d;" horiz-adv-x="673" d="M323 536 C153 536 49 443 30 344 L194 344 C207 371 253 398 324 398 C388 398 444 375 461 326 L243 326 L243 203 L463 203 C448 156 395 125 322 125 C250 125 204 149 191 182 L28 182 C41 80 142 -13 318 -13 C511 -13 642 96 642 261 C642 425 513 536 323 536 L323 536 Z " />
<glyph glyph-name="uni044E" unicode="&#x44e;" horiz-adv-x="999" d="M647 536 C491 536 373 462 337 341 L235 341 L235 523 L58 523 L58 0 L235 0 L235 193 L334 193 C365 66 486 -13 647 -13 C835 -13 968 94 968 261 C968 427 835 536 647 536 L647 536 Z M647 136 C557 136 503 189 503 261 C503 332 557 387 647 387 C737 387 792 332 792 261 C792 189 736 136 647 136 L647 136 Z " />
<glyph glyph-name="uni044F" unicode="&#x44f;" horiz-adv-x="657" d="M283 523 C117 523 51 441 51 338 C51 270 85 212 154 179 L13 0 L206 0 L325 152 L425 152 L425 0 L599 0 L599 523 L283 523 Z M303 281 C248 281 226 304 226 336 C226 368 252 391 303 391 L425 391 L425 281 L303 281 Z " />
<glyph glyph-name="uni0451" unicode="&#x451;" horiz-adv-x="682" d="M220 583 C271 583 313 622 313 669 C313 717 271 756 220 756 C169 756 127 717 127 669 C127 622 169 583 220 583 L220 583 Z M469 583 C521 583 563 622 563 669 C563 717 521 756 469 756 C419 756 377 717 377 669 C377 622 419 583 469 583 L469 583 Z M651 212 L651 266 C651 430 529 536 345 536 C160 536 31 429 31 258 C31 87 165 -13 354 -13 C537 -13 624 78 644 156 L476 156 C464 140 425 120 357 120 C273 120 207 161 207 210 L207 212 L651 212 Z M348 404 C424 404 475 374 481 328 L210 328 C222 379 277 404 348 404 L348 404 Z " />
<glyph glyph-name="uni0452" unicode="&#x452;" horiz-adv-x="731" d="M445 536 C361 536 292 497 256 451 L256 572 L409 572 L409 670 L256 670 L256 727 L79 727 L79 670 L-3 670 L-3 572 L79 572 L79 0 L256 0 L256 272 C256 344 317 379 381 379 C451 379 500 342 500 272 L500 21 C500 -47 453 -57 411 -57 L388 -57 L388 -194 L427 -194 C638 -194 677 -98 677 15 L677 316 C677 473 563 536 445 536 L445 536 Z " />
<glyph glyph-name="uni0454" unicode="&#x454;" horiz-adv-x="673" d="M482 182 C469 149 424 125 351 125 C278 125 226 156 211 203 L430 203 L430 326 L213 326 C230 375 286 398 350 398 C420 398 466 371 479 344 L644 344 C625 443 521 536 351 536 C161 536 31 425 31 261 C31 96 162 -13 355 -13 C531 -13 632 80 645 182 L482 182 Z " />
<glyph glyph-name="uni0455" unicode="&#x455;" horiz-adv-x="627" d="M203 159 L31 159 C46 48 164 -13 322 -13 C476 -13 597 51 597 167 C597 265 529 315 414 325 L276 337 C239 340 210 345 210 369 C210 390 248 407 306 407 C361 407 402 394 412 365 L584 365 C569 470 464 535 311 535 C154 535 40 464 40 356 C40 255 109 209 224 199 L357 187 C402 183 425 178 425 156 C425 132 386 114 324 114 C257 114 214 130 203 159 L203 159 Z " />
<glyph glyph-name="uni0456" unicode="&#x456;" horiz-adv-x="293" d="M146 767 C93 767 51 726 51 673 C51 619 93 578 146 578 C200 578 242 619 242 673 C242 726 200 767 146 767 L146 767 Z M235 523 L58 523 L58 0 L235 0 L235 523 Z " />
<glyph glyph-name="uni0457" unicode="&#x457;" horiz-adv-x="330" d="M60 751 C12 751 -28 714 -28 669 C-28 625 12 588 60 588 C108 588 148 625 148 669 C148 714 108 751 60 751 L60 751 Z M270 751 C222 751 182 714 182 669 C182 625 222 588 270 588 C318 588 358 625 358 669 C358 714 318 751 270 751 L270 751 Z M253 523 L77 523 L77 0 L253 0 L253 523 Z " />
<glyph glyph-name="uni0458" unicode="&#x458;" horiz-adv-x="314" d="M167 767 C114 767 72 726 72 673 C72 619 114 578 167 578 C221 578 263 619 263 673 C263 726 221 767 167 767 L167 767 Z M-32 -194 L6 -194 C218 -194 256 -98 256 15 L256 523 L79 523 L79 21 C79 -57 16 -57 -9 -57 L-32 -57 L-32 -194 Z " />
<glyph glyph-name="uni0459" unicode="&#x459;" horiz-adv-x="1062" d="M802 384 L668 384 L668 523 L165 523 L134 223 C128 165 97 146 36 146 L15 146 L15 -2 L62 -2 C227 -2 288 74 302 211 L319 375 L494 375 L494 0 L803 0 C959 0 1033 83 1033 193 C1033 302 960 384 802 384 L802 384 Z M787 137 L668 137 L668 247 L787 247 C836 247 860 226 860 193 C860 161 836 137 787 137 L787 137 Z " />
<glyph glyph-name="uni045A" unicode="&#x45a;" horiz-adv-x="1036" d="M794 362 L645 362 L645 523 L471 523 L471 358 L232 358 L232 523 L58 523 L58 0 L232 0 L232 216 L471 216 L471 0 L794 0 C935 0 1006 76 1006 181 C1006 286 934 362 794 362 L794 362 Z M764 130 L645 130 L645 233 L764 233 C810 233 832 213 832 183 C832 153 810 130 764 130 L764 130 Z " />
<glyph glyph-name="uni045B" unicode="&#x45b;" horiz-adv-x="712" d="M426 536 C342 536 273 497 237 451 L237 573 L359 573 L359 670 L237 670 L237 727 L60 727 L60 670 L11 670 L11 573 L60 573 L60 0 L237 0 L237 272 C237 344 298 379 361 379 C432 379 481 342 481 272 L481 0 L658 0 L658 315 C658 473 544 536 426 536 L426 536 Z " />
<glyph glyph-name="uni045F" unicode="&#x45f;" horiz-adv-x="709" d="M651 523 L474 523 L474 148 L235 148 L235 523 L58 523 L58 0 L270 0 L270 -146 L439 -146 L439 0 L651 0 L651 523 Z " />
<glyph glyph-name="uni0462" unicode="&#x462;" horiz-adv-x="927" d="M620 445 L436 445 L436 528 L681 528 L681 662 L436 662 L436 747 L249 747 L249 662 L30 662 L30 528 L249 528 L249 0 L619 0 C796 0 894 96 894 223 C894 361 799 445 620 445 L620 445 Z M594 152 L436 152 L436 301 L594 301 C675 301 707 271 707 227 C707 183 675 152 594 152 L594 152 Z " />
<glyph glyph-name="uni0463" unicode="&#x463;" horiz-adv-x="780" d="M539 341 L387 341 L387 403 L596 403 L596 523 L387 523 L387 704 L213 704 L213 523 L24 523 L24 403 L213 403 L213 0 L539 0 C677 0 750 66 750 170 C750 275 676 341 539 341 L539 341 Z M506 122 L387 122 L387 221 L506 221 C554 221 577 203 577 172 C577 142 554 122 506 122 L506 122 Z " />
<glyph glyph-name="uni0472" unicode="&#x472;" horiz-adv-x="914" d="M457 717 C212 717 38 574 38 352 C38 130 212 -13 457 -13 C702 -13 876 130 876 352 C876 574 702 717 457 717 L457 717 Z M457 558 C563 558 638 512 671 442 C648 432 616 426 580 426 C504 426 442 458 349 458 C305 458 264 446 238 430 C268 507 346 558 457 558 L457 558 Z M457 146 C340 146 260 203 233 286 C256 299 292 307 332 307 C410 307 473 275 564 275 C616 275 663 292 687 309 C668 213 586 146 457 146 L457 146 Z " />
<glyph glyph-name="uni0473" unicode="&#x473;" horiz-adv-x="712" d="M356 536 C168 536 31 429 31 261 C31 94 168 -13 356 -13 C545 -13 681 94 681 261 C681 429 545 536 356 536 L356 536 Z M356 392 C425 392 475 364 498 319 C485 313 467 308 442 308 C388 308 346 330 281 330 C251 330 229 323 213 313 C234 362 285 392 356 392 L356 392 Z M356 131 C286 131 236 160 214 207 C227 214 245 218 270 218 C324 218 367 197 432 197 C464 197 488 206 503 216 C484 164 431 131 356 131 L356 131 Z " />
<glyph glyph-name="uni0474" unicode="&#x474;" horiz-adv-x="914" d="M848 706 C644 706 602 622 536 473 L422 216 L205 704 L10 704 L325 0 L517 0 L711 427 C755 523 785 545 866 545 L887 545 L887 706 L848 706 Z " />
<glyph glyph-name="uni0475" unicode="&#x475;" horiz-adv-x="716" d="M677 525 C494 525 456 451 408 350 L334 193 L189 523 L0 523 L241 0 L426 0 L575 302 C609 371 642 377 693 377 L711 377 L711 525 L677 525 Z " />
<glyph glyph-name="uni0492" unicode="&#x492;" horiz-adv-x="725" d="M692 543 L692 704 L113 704 L113 382 L20 382 L20 246 L113 246 L113 0 L299 0 L299 246 L572 246 L572 382 L299 382 L299 543 L692 543 Z " />
<glyph glyph-name="uni0493" unicode="&#x493;" horiz-adv-x="585" d="M558 376 L558 523 L98 523 L98 280 L15 280 L15 169 L98 169 L98 0 L273 0 L273 169 L463 169 L463 280 L273 280 L273 376 L558 376 Z " />
<glyph glyph-name="uni2000" unicode="&#x2000;" horiz-adv-x="500" d="" />
<glyph glyph-name="uni2001" unicode="&#x2001;" horiz-adv-x="1000" d="" />
<glyph glyph-name="uni2002" unicode="&#x2002;" horiz-adv-x="515" d="" />
<glyph glyph-name="uni2003" unicode="&#x2003;" horiz-adv-x="1000" d="" />
<glyph glyph-name="uni2004" unicode="&#x2004;" horiz-adv-x="315" d="" />
<glyph glyph-name="uni2005" unicode="&#x2005;" horiz-adv-x="250" d="" />
<glyph glyph-name="uni2006" unicode="&#x2006;" horiz-adv-x="145" d="" />
<glyph glyph-name="uni2007" unicode="&#x2007;" horiz-adv-x="595" d="" />
<glyph glyph-name="uni2008" unicode="&#x2008;" horiz-adv-x="307" d="" />
<glyph glyph-name="uni2009" unicode="&#x2009;" horiz-adv-x="185" d="" />
<glyph glyph-name="uni200A" unicode="&#x200a;" horiz-adv-x="45" d="" />
<glyph glyph-name="uni200B" unicode="&#x200b;" d="" />
<glyph glyph-name="endash" unicode="&#x2013;" horiz-adv-x="625" d="M0 197 L625 197 L625 353 L0 353 L0 197 Z " />
<glyph glyph-name="emdash" unicode="&#x2014;" horiz-adv-x="1250" d="M0 197 L1250 197 L1250 353 L0 353 L0 197 Z " />
<glyph glyph-name="quoteleft" unicode="&#x2018;" horiz-adv-x="325" d="M55 475 C55 420 103 376 162 376 C223 376 268 417 268 471 C268 520 233 547 203 558 L271 704 L146 704 L70 541 C62 523 55 504 55 475 L55 475 Z " />
<glyph glyph-name="quoteright" unicode="&#x2019;" horiz-adv-x="325" d="M270 605 C270 660 222 704 163 704 C102 704 57 663 57 609 C57 560 92 533 122 522 L54 376 L179 376 L255 539 C263 557 270 576 270 605 L270 605 Z " />
<glyph glyph-name="quotesinglbase" unicode="&#x201a;" horiz-adv-x="325" d="M270 84 C270 139 222 183 163 183 C102 183 57 142 57 88 C57 39 92 12 122 1 L54 -145 L179 -145 L255 18 C263 36 270 55 270 84 L270 84 Z " />
<glyph glyph-name="quotedblleft" unicode="&#x201c;" horiz-adv-x="578" d="M55 475 C55 420 103 376 162 376 C223 376 268 417 268 471 C268 520 233 547 203 558 L271 704 L146 704 L70 541 C62 523 55 504 55 475 L55 475 Z M308 475 C308 420 356 376 415 376 C476 376 521 417 521 471 C521 520 486 547 456 558 L524 704 L399 704 L323 541 C315 523 308 504 308 475 L308 475 Z " />
<glyph glyph-name="quotedblright" unicode="&#x201d;" horiz-adv-x="578" d="M270 605 C270 660 222 704 163 704 C102 704 57 663 57 609 C57 560 92 533 122 522 L54 376 L179 376 L255 539 C263 557 270 576 270 605 L270 605 Z M523 605 C523 660 475 704 416 704 C355 704 310 663 310 609 C310 560 345 533 375 522 L307 376 L432 376 L508 539 C516 557 523 576 523 605 L523 605 Z " />
<glyph glyph-name="quotedblbase" unicode="&#x201e;" horiz-adv-x="578" d="M270 84 C270 139 222 183 163 183 C102 183 57 142 57 88 C57 39 92 12 122 1 L54 -145 L179 -145 L255 18 C263 36 270 55 270 84 L270 84 Z M523 84 C523 139 475 183 416 183 C355 183 310 142 310 88 C310 39 345 12 375 1 L307 -145 L432 -145 L508 18 C516 36 523 55 523 84 L523 84 Z " />
<glyph glyph-name="dagger" unicode="&#x2020;" horiz-adv-x="575" d="M531 599 L359 599 L359 757 L215 757 L215 599 L44 599 L44 458 L215 458 L215 181 L359 181 L359 458 L531 458 L531 599 Z " />
<glyph glyph-name="daggerdbl" unicode="&#x2021;" horiz-adv-x="575" d="M531 458 L531 599 L359 599 L359 757 L215 757 L215 599 L44 599 L44 458 L215 458 L215 309 L44 309 L44 168 L215 168 L215 9 L359 9 L359 168 L531 168 L531 309 L359 309 L359 458 L531 458 Z " />
<glyph glyph-name="bullet" unicode="&#x2022;" horiz-adv-x="521" d="M260 455 C147 455 55 373 55 270 C55 168 147 85 260 85 C374 85 466 168 466 270 C466 373 374 455 260 455 L260 455 Z " />
<glyph glyph-name="ellipsis" unicode="&#x2026;" horiz-adv-x="945" d="M161 186 C102 186 55 142 55 87 C55 31 102 -13 161 -13 C220 -13 265 31 265 87 C265 142 220 186 161 186 L161 186 Z M473 186 C414 186 367 142 367 87 C367 31 414 -13 473 -13 C532 -13 577 31 577 87 C577 142 532 186 473 186 L473 186 Z M786 186 C727 186 680 142 680 87 C680 31 727 -13 786 -13 C845 -13 890 31 890 87 C890 142 845 186 786 186 L786 186 Z " />
<glyph glyph-name="perthousand" unicode="&#x2030;" horiz-adv-x="1658" d="M30 522 C30 407 129 328 260 328 C392 328 491 407 491 522 C491 638 391 717 260 717 C129 717 30 638 30 522 L30 522 Z M184 0 L346 0 L960 704 L796 704 L184 0 Z M260 597 C314 597 349 565 349 522 C349 480 315 448 260 448 C205 448 173 481 173 522 C173 564 205 597 260 597 L260 597 Z M652 182 C652 66 752 -13 884 -13 C1015 -13 1114 66 1114 182 C1114 297 1015 376 884 376 C752 376 652 297 652 182 L652 182 Z M1167 182 C1167 66 1266 -13 1397 -13 C1528 -13 1628 66 1628 182 C1628 297 1529 376 1397 376 C1266 376 1167 297 1167 182 L1167 182 Z M884 256 C939 256 971 223 971 182 C971 140 939 107 884 107 C829 107 795 139 795 182 C795 224 829 256 884 256 L884 256 Z M1397 256 C1452 256 1485 224 1485 182 C1485 139 1451 107 1397 107 C1342 107 1309 140 1309 182 C1309 223 1342 256 1397 256 L1397 256 Z " />
<glyph glyph-name="guilsinglleft" unicode="&#x2039;" horiz-adv-x="493" d="M233 266 L448 486 L266 486 L45 266 L266 48 L448 48 L233 266 Z " />
<glyph glyph-name="guilsinglright" unicode="&#x203a;" horiz-adv-x="493" d="M261 266 L45 48 L227 48 L448 266 L227 486 L45 486 L261 266 Z " />
<glyph glyph-name="Euro" unicode="&#x20ac;" horiz-adv-x="833" d="M637 208 C617 171 573 137 489 137 C417 137 367 168 338 221 L521 221 L539 328 L311 328 C310 336 310 344 310 352 C310 361 310 370 311 379 L551 379 L570 485 L338 485 C367 539 418 567 489 567 C573 567 620 532 636 496 L806 496 C787 612 671 717 489 717 C314 717 198 623 153 487 L22 487 L22 379 L133 379 C132 370 132 361 132 352 C132 344 132 336 133 328 L22 328 L22 219 L152 219 C197 77 319 -13 490 -13 C684 -13 788 104 809 208 L637 208 Z " />
<glyph glyph-name="uni20B4" unicode="&#x20b4;" horiz-adv-x="824" d="M683 485 C700 500 712 518 712 548 C712 633 603 717 422 717 C252 717 134 632 112 530 L284 530 C296 557 343 575 414 575 C486 575 534 550 534 520 C534 504 524 493 506 485 L35 485 L35 377 L789 377 L789 485 L683 485 Z M35 221 L137 221 C120 205 110 184 110 160 C110 68 231 -13 412 -13 C593 -13 711 60 732 170 L560 170 C548 145 495 128 415 128 C342 128 287 149 287 181 C287 196 296 209 315 221 L789 221 L789 330 L35 330 L35 221 Z " />
<glyph glyph-name="uni20B8" unicode="&#x20b8;" horiz-adv-x="752" d="M40 704 L40 578 L712 578 L712 704 L40 704 Z M40 366 L286 366 L286 0 L465 0 L465 366 L712 366 L712 518 L40 518 L40 366 Z " />
<glyph glyph-name="uni20BD" unicode="&#x20bd;" horiz-adv-x="789" d="M500 275 C671 275 757 360 757 487 C757 616 670 704 489 704 L149 704 L149 400 L24 400 L24 275 L149 275 L149 213 L24 213 L24 102 L149 102 L149 0 L326 0 L326 102 L575 102 L575 213 L326 213 L326 275 L500 275 Z M577 485 C577 440 544 406 471 406 L326 406 L326 562 L470 562 C544 562 577 532 577 485 L577 485 Z " />
<glyph glyph-name="uni20BF" unicode="&#x20bf;" horiz-adv-x="735" d="M701 211 C701 306 628 361 562 376 C621 396 669 436 669 512 C669 593 619 662 495 682 L495 788 L391 788 L391 687 L310 687 L310 788 L207 788 L207 687 L68 687 L68 17 L207 17 L207 -90 L310 -90 L310 17 L391 17 L391 -90 L495 -90 L495 20 C638 35 701 112 701 211 L701 211 Z M245 545 L402 545 C463 545 491 522 491 485 C491 452 467 423 406 423 L245 423 L245 545 Z M432 159 L245 159 L245 291 L431 291 C492 291 522 266 522 225 C522 183 491 159 432 159 L432 159 Z " />
<glyph glyph-name="uni2116" unicode="&#x2116;" horiz-adv-x="1409" d="M1141 344 C1279 344 1374 424 1374 531 C1374 638 1279 717 1141 717 C1004 717 908 638 908 531 C908 424 1003 344 1141 344 L1141 344 Z M637 272 L262 704 L68 704 L68 0 L247 0 L247 455 L642 0 L817 0 L817 704 L637 704 L637 272 Z M1141 600 C1195 600 1234 573 1234 531 C1234 488 1195 462 1141 462 C1087 462 1048 488 1048 531 C1048 574 1088 600 1141 600 L1141 600 Z M926 160 L1356 160 L1356 299 L926 299 L926 160 Z " />
<glyph glyph-name="trademark" unicode="&#x2122;" horiz-adv-x="1269" d="M24 580 L190 580 L190 260 L337 260 L337 580 L503 580 L503 704 L24 704 L24 580 Z M1038 704 L902 442 L763 704 L583 704 L583 260 L716 260 L716 532 L854 266 L948 266 L1085 531 L1085 260 L1219 260 L1219 704 L1038 704 Z " />
<glyph glyph-name="partialdiff" unicode="&#x2202;" horiz-adv-x="726" d="M384 727 L176 727 C283 664 417 582 474 462 C437 487 385 502 319 502 C149 502 31 397 31 250 C31 99 155 -13 355 -13 C570 -13 685 115 685 299 C685 553 459 696 384 727 L384 727 Z M357 131 C257 131 208 188 208 250 C208 315 259 364 356 364 C451 364 509 310 509 250 C509 187 456 131 357 131 L357 131 Z " />
<glyph glyph-name="product" unicode="&#x220f;" horiz-adv-x="839" d="M68 704 L68 -140 L254 -140 L254 543 L585 543 L585 -140 L771 -140 L771 704 L68 704 Z " />
<glyph glyph-name="summation" unicode="&#x2211;" horiz-adv-x="726" d="M666 704 L60 704 L60 563 L324 282 L60 1 L60 -140 L666 -140 L666 18 L290 18 L538 283 L292 546 L666 546 L666 704 Z " />
<glyph glyph-name="minus" unicode="&#x2212;" horiz-adv-x="762" d="M683 197 L683 353 L79 353 L79 197 L683 197 Z " />
<glyph glyph-name="radical" unicode="&#x221a;" horiz-adv-x="944" d="M705 727 L472 83 L333 347 L60 347 L60 202 L215 202 L384 -115 L574 -115 L879 727 L705 727 Z " />
<glyph glyph-name="infinity" unicode="&#x221e;" horiz-adv-x="1118" d="M823 501 C707 501 623 439 562 376 C498 439 411 501 295 501 C129 501 27 403 27 281 C27 159 129 61 295 61 C410 61 495 123 557 186 C621 123 706 61 823 61 C987 61 1091 158 1091 281 C1091 404 987 501 823 501 L823 501 Z M189 281 C189 325 231 355 297 355 C364 355 419 322 462 281 C419 240 365 207 297 207 C231 207 189 237 189 281 L189 281 Z M821 207 C754 207 698 241 655 281 C698 321 754 355 821 355 C887 355 929 325 929 281 C929 237 887 207 821 207 L821 207 Z " />
<glyph glyph-name="integral" unicode="&#x222b;" horiz-adv-x="630" d="M600 704 L542 704 C377 704 303 638 276 511 L178 58 C167 7 127 -14 68 -14 L30 -14 L30 -158 L88 -158 C267 -158 329 -80 354 35 L452 488 C462 535 498 560 562 560 L600 560 L600 704 Z " />
<glyph glyph-name="approxequal" unicode="&#x2248;" horiz-adv-x="767" d="M563 494 L563 485 C563 456 542 436 508 436 C445 436 369 502 259 502 C161 502 73 441 73 326 L73 299 L204 299 L204 308 C204 337 225 357 259 357 C322 357 398 291 508 291 C606 291 694 351 694 466 L694 494 L563 494 Z M563 251 L563 242 C563 213 542 193 508 193 C445 193 369 259 259 259 C161 259 73 198 73 83 L73 56 L204 56 L204 65 C204 94 225 114 259 114 C322 114 398 48 508 48 C606 48 694 108 694 223 L694 251 L563 251 Z " />
<glyph glyph-name="notequal" unicode="&#x2260;" horiz-adv-x="762" d="M683 323 L683 465 L552 465 L595 550 L444 550 L401 465 L79 465 L79 323 L330 323 L281 225 L79 225 L79 83 L210 83 L167 -2 L317 -2 L360 83 L683 83 L683 225 L431 225 L481 323 L683 323 Z " />
<glyph glyph-name="lessequal" unicode="&#x2264;" horiz-adv-x="767" d="M692 560 L75 408 L75 260 L569 132 L75 132 L75 -2 L692 -2 L692 232 L289 330 L692 422 L692 560 Z " />
<glyph glyph-name="greaterequal" unicode="&#x2265;" horiz-adv-x="767" d="M692 408 L75 560 L75 422 L477 330 L75 232 L75 -2 L692 -2 L692 132 L196 132 L692 260 L692 408 Z " />
</font>
</svg>
